<svg width="2690" height="758" xmlns="http://www.w3.org/2000/svg" xmlns:xlink="http://www.w3.org/1999/xlink" xml:space="preserve" overflow="hidden"><g transform="translate(-501 -680)"><rect x="1681" y="856" width="330" height="231" stroke="#000000" stroke-width="10.3125" stroke-miterlimit="8" fill="none"/><path d="M1797.71 942.969C1800.28 942.969 1802.63 943.125 1804.76 943.435 1806.9 943.746 1809.24 944.307 1811.78 945.117L1809.3 956.019 1805.41 956.019C1805.17 952.642 1804.43 950.217 1803.18 948.744 1801.94 947.272 1799.91 946.536 1797.1 946.536 1794.84 946.536 1792.71 947.116 1790.74 948.278 1788.77 949.44 1786.9 951.176 1785.13 953.486 1783.36 955.796 1781.77 958.707 1780.35 962.22 1778.93 965.732 1777.83 969.393 1777.04 973.203 1776.26 977.012 1775.87 980.592 1775.87 983.942 1775.87 988.157 1776.59 991.23 1778.04 993.162 1779.48 995.094 1781.74 996.06 1784.82 996.06 1785.93 996.06 1787.07 995.932 1788.23 995.675 1789.39 995.418 1790.48 994.979 1791.49 994.358 1792.5 993.736 1793.4 992.899 1794.19 991.845 1794.97 990.791 1795.54 989.468 1795.89 987.873L1796.33 985.969C1796.93 983.429 1797.23 981.254 1797.23 979.444 1797.23 978.174 1796.91 977.289 1796.27 976.789 1795.64 976.289 1794.63 975.999 1793.25 975.918L1793.7 973.932 1809.91 973.932 1809.47 975.918C1808.44 976.134 1807.7 976.377 1807.24 976.647 1806.78 976.918 1806.37 977.33 1806 977.883 1805.64 978.437 1805.28 979.282 1804.93 980.416 1804.58 981.551 1804.12 983.415 1803.55 986.009L1800.75 998.735 1797.55 999.626 1795.44 996.425C1792.63 997.749 1790.42 998.606 1788.8 998.998 1787.18 999.39 1785.53 999.586 1783.85 999.586 1778.77 999.586 1774.91 998.127 1772.26 995.209 1769.61 992.291 1768.29 988.022 1768.29 982.402 1768.29 978.377 1768.97 973.858 1770.32 968.846 1771.67 963.834 1773.63 959.356 1776.21 955.411 1778.79 951.466 1781.91 948.407 1785.57 946.232 1789.24 944.057 1793.28 942.969 1797.71 942.969Z" fill="#00B0F0" fill-rule="evenodd"/><text fill="#000000" fill-opacity="0" font-family="Arial,Arial_MSFontService,sans-serif" font-size="56.6572" x="1768.29" y="992.544">𝐺</text><path d="M1896.97 936.823C1904.86 938.904 1910.92 943.396 1915.15 950.299 1919.38 957.202 1921.49 965.53 1921.49 975.284 1921.49 985.064 1919.38 993.393 1915.17 1000.27 1910.95 1007.15 1904.89 1011.62 1896.97 1013.7L1896 1010.58C1902.24 1008.5 1906.88 1004.4 1909.92 998.263 1912.96 992.13 1914.48 984.335 1914.48 974.879 1914.48 965.746 1912.97 958.161 1909.94 952.122 1906.91 946.084 1902.23 942.024 1895.88 939.944ZM1850.39 936.823 1851.48 939.944C1845.16 942.024 1840.48 946.084 1837.44 952.122 1834.4 958.161 1832.88 965.746 1832.88 974.879 1832.88 984.335 1834.4 992.13 1837.44 998.263 1840.48 1004.4 1845.12 1008.5 1851.36 1010.58L1850.39 1013.7C1842.47 1011.62 1836.41 1007.15 1832.19 1000.27 1827.98 993.393 1825.87 985.064 1825.87 975.284 1825.87 965.53 1827.98 957.202 1832.21 950.299 1836.44 943.396 1842.5 938.904 1850.39 936.823Z" fill="#00B0F0" fill-rule="evenodd"/><path d="M1862.34 960.193 1891.15 960.193 1891.92 962.22 1872.59 984.429C1868.83 988.725 1865.58 992.372 1862.82 995.371L1863.07 995.655 1872.22 995.655C1873.85 995.655 1875.09 995.567 1875.95 995.391 1876.82 995.216 1877.57 994.885 1878.22 994.398 1878.87 993.912 1879.54 993.176 1880.23 992.19 1880.92 991.203 1881.78 989.657 1882.8 987.549L1886.41 987.549 1883.94 998.937 1854.6 998.937 1853.83 996.952 1875.99 971.419C1879.13 967.826 1881.42 965.273 1882.88 963.76L1882.64 963.476 1873.16 963.476C1871.75 963.476 1870.73 963.571 1870.08 963.76 1869.43 963.949 1868.78 964.28 1868.13 964.753 1867.48 965.225 1866.79 965.928 1866.04 966.86 1865.3 967.792 1864.47 969.123 1863.55 970.852L1859.95 970.852Z" fill="#00B0F0" fill-rule="evenodd"/><text fill="#000000" fill-opacity="0" font-family="Arial,Arial_MSFontService,sans-serif" font-size="38.7441" x="1853.83" y="994.094">𝑧</text><path d="M1020 971.5C1020 907.711 1071.71 856 1135.5 856 1199.29 856 1251 907.711 1251 971.5 1251 1035.29 1199.29 1087 1135.5 1087 1071.71 1087 1020 1035.29 1020 971.5Z" stroke="#0D0D0D" stroke-width="10.3125" stroke-miterlimit="8" fill="none" fill-rule="evenodd"/><path d="M2442 971.5C2442 907.711 2493.71 856 2557.5 856 2621.29 856 2673 907.711 2673 971.5 2673 1035.29 2621.29 1087 2557.5 1087 2493.71 1087 2442 1035.29 2442 971.5Z" stroke="#0D0D0D" stroke-width="10.3125" stroke-miterlimit="8" fill="none" fill-rule="evenodd"/><path d="M1217.34 1053.34 1054 890" stroke="#000000" stroke-width="10.3125" stroke-miterlimit="8" fill="none" fill-rule="evenodd"/><path d="M0 0 163.341 163.341" stroke="#000000" stroke-width="10.3125" stroke-miterlimit="8" fill="none" fill-rule="evenodd" transform="matrix(-1 0 0 1 1217.34 890)"/><path d="M0 0 163.341 163.341" stroke="#000000" stroke-width="10.3125" stroke-miterlimit="8" fill="none" fill-rule="evenodd" transform="matrix(-1 0 0 1 2638.34 890)"/><path d="M2638.34 1053.34 2475 890" stroke="#000000" stroke-width="10.3125" stroke-miterlimit="8" fill="none" fill-rule="evenodd"/><path d="M1251 965.844 1654.85 965.844 1654.85 976.157 1251 976.156ZM1649.69 955.532 1680.63 971 1649.69 986.469Z"/><path d="M2011 965.844 2415.86 965.844 2415.86 976.157 2011 976.156ZM2410.7 955.532 2441.64 971 2410.7 986.469Z"/><path d="M0.00725689-5.15624 403.225-4.58876 403.211 5.72373-0.00725689 5.15624ZM398.084-14.9085 429 0.603773 398.04 16.029Z" transform="matrix(1 0 0 -1 2673 971.604)"/><path d="M590.007 965.844 994.867 966.411 994.853 976.724 589.993 976.156ZM989.726 956.091 1020.64 971.604 989.682 987.029Z"/><path d="M523.684 908.434C525.386 908.434 526.73 908.995 527.716 910.116 528.702 911.237 529.195 912.703 529.195 914.513 529.195 915.864 528.939 917.256 528.425 918.688L528.952 918.89C531.6 915.297 534.146 912.662 536.592 910.987 539.037 909.312 541.516 908.475 544.028 908.475 546.001 908.475 547.649 908.623 548.973 908.92L547.027 917.999 542.853 917.999C542.691 916.864 542.461 915.986 542.164 915.364 541.867 914.743 541.516 914.311 541.11 914.067 540.705 913.824 540.192 913.703 539.57 913.703 538.598 913.703 537.537 914.121 536.389 914.959 535.241 915.797 533.951 917.107 532.519 918.89 531.087 920.673 529.945 922.389 529.094 924.037 528.243 925.685 527.534 927.779 526.966 930.319L523.116 947.867 516.105 947.867 521.982 922.173C522.36 920.552 522.603 919.295 522.711 918.404 522.819 917.512 522.873 916.769 522.873 916.175 522.873 915.094 522.698 914.311 522.346 913.824 521.995 913.338 521.441 913.095 520.685 913.095 519.847 913.095 518.962 913.439 518.03 914.128 517.098 914.817 515.821 916.067 514.2 917.877L511.89 915.607C514.376 913.014 516.456 911.17 518.131 910.075 519.807 908.981 521.657 908.434 523.684 908.434Z" fill-rule="evenodd"/><text fill="#000000" fill-opacity="0" font-family="Arial,Arial_MSFontService,sans-serif" font-size="39.4331" x="511.89" y="942.938">𝑟</text><path d="M636.265 885.753C644.155 887.833 650.213 892.325 654.442 899.228 658.67 906.132 660.784 914.46 660.784 924.214 660.784 933.994 658.677 942.323 654.462 949.199 650.247 956.075 644.182 960.553 636.265 962.633L635.293 959.513C641.534 957.432 646.174 953.326 649.214 947.193 652.253 941.059 653.773 933.265 653.773 923.808 653.773 914.676 652.26 907.091 649.234 901.052 646.208 895.014 641.52 890.954 635.171 888.874ZM583.541 885.753 584.635 888.874C578.313 890.954 573.632 895.014 570.592 901.052 567.553 907.091 566.033 914.676 566.033 923.808 566.033 933.265 567.553 941.059 570.592 947.193 573.632 953.326 578.272 957.432 584.513 959.513L583.541 962.633C575.624 960.553 569.559 956.075 565.344 949.199 561.129 942.323 559.022 933.994 559.022 924.214 559.022 914.46 561.136 906.132 565.364 899.228 569.593 892.325 575.651 887.833 583.541 885.753Z" fill-rule="evenodd"/><path d="M607.079 889.913 609.43 889.913 601.486 925.293 602.783 925.293C604.81 925.293 607.086 924.409 609.612 922.639 612.138 920.869 614.158 919.228 615.671 917.715 617.184 916.202 617.94 914.743 617.94 913.338 617.94 912.014 617.022 911.271 615.185 911.109L615.63 909.123 628.761 909.123 629.531 911.109C627.289 913.135 624.911 915.121 622.398 917.066L612.348 924.848 616.319 939.478C616.644 940.721 616.934 941.619 617.191 942.173 617.447 942.727 617.745 943.139 618.082 943.409 618.42 943.679 618.873 943.814 619.44 943.814 620.142 943.814 620.98 943.436 621.953 942.68 622.925 941.923 624.033 940.829 625.276 939.397L627.586 941.667C625.154 944.233 623.141 946.016 621.547 947.016 619.953 948.016 618.413 948.516 616.927 948.516 615.09 948.516 613.631 947.996 612.55 946.955 611.47 945.915 610.618 944.179 609.997 941.748L607.322 931.21C607.052 930.157 606.782 929.427 606.512 929.022 606.242 928.617 605.931 928.346 605.58 928.211 605.228 928.076 604.607 928.009 603.715 928.009L600.919 928.009 596.704 947.867 589.693 947.867 600.108 901.544C600.46 899.977 600.71 898.755 600.858 897.877 601.007 896.999 601.081 896.222 601.081 895.546 601.081 894.412 600.737 893.615 600.048 893.155 599.359 892.696 598.123 892.439 596.339 892.385L596.826 890.278Z" fill-rule="evenodd"/><text fill="#000000" fill-opacity="0" font-family="Arial,Arial_MSFontService,sans-serif" font-size="58.6025" x="589.693" y="941.19">𝑘</text><path d="M0-5.15625 22.1056-5.15625 22.1056 284.947 16.9494 279.79 1785.96 279.79 1780.8 284.947 1780.8 140.677 1791.11 140.677 1791.11 290.103 11.7931 290.103 11.7931 0 16.9494 5.15625 0 5.15625ZM1770.49 145.833 1785.96 114.896 1801.42 145.833Z" transform="matrix(1 0 0 -1 771 970.896)"/><path d="M1000.6 1375.48C1002.55 1375.48 1003.95 1375.99 1004.82 1377 1005.68 1378.02 1006.11 1379.37 1006.11 1381.08 1006.11 1382.37 1005.88 1383.86 1005.42 1385.53 1004.96 1387.21 1004.32 1388.98 1003.48 1390.84 1002.64 1392.71 1001.64 1394.62 1000.48 1396.58 999.317 1398.54 998.034 1400.44 996.629 1402.29 995.224 1404.14 993.724 1405.89 992.13 1407.52 990.536 1409.16 988.881 1410.58 987.166 1411.8 985.45 1413.01 983.707 1413.98 981.938 1414.69 980.168 1415.41 978.405 1415.77 976.649 1415.77 975.865 1415.77 975.21 1415.57 974.683 1415.18 974.156 1414.79 973.731 1414.23 973.407 1413.52 973.082 1412.8 972.853 1411.96 972.718 1410.99 972.583 1410.01 972.515 1408.95 972.515 1407.78 972.515 1406.24 972.61 1404.6 972.799 1402.84 972.988 1401.08 973.231 1399.31 973.528 1397.53L975.23 1386.3C975.339 1385.66 975.426 1385.04 975.494 1384.46 975.561 1383.88 975.595 1383.45 975.595 1383.18 975.595 1382.35 975.46 1381.66 975.19 1381.12 974.92 1380.58 974.46 1380.31 973.812 1380.31 973.299 1380.31 972.745 1380.46 972.15 1380.77 971.556 1381.08 970.955 1381.48 970.347 1381.97 969.739 1382.45 969.151 1382.97 968.584 1383.53 968.017 1384.08 967.49 1384.6 967.003 1385.09L965.058 1382.82C965.896 1381.95 966.787 1381.1 967.733 1380.25 968.678 1379.39 969.678 1378.62 970.732 1377.94 971.786 1377.25 972.893 1376.69 974.055 1376.27 975.217 1375.86 976.406 1375.65 977.622 1375.65 978.648 1375.65 979.486 1375.81 980.134 1376.15 980.783 1376.49 981.289 1376.94 981.654 1377.49 982.019 1378.04 982.269 1378.65 982.404 1379.31 982.539 1379.98 982.606 1380.63 982.606 1381.28 982.606 1381.66 982.593 1382.02 982.566 1382.37 982.539 1382.72 982.498 1383.05 982.444 1383.35L980.175 1398.02C979.932 1399.56 979.729 1401.06 979.567 1402.54 979.405 1404.01 979.324 1405.31 979.324 1406.45 979.324 1407.58 979.391 1408.5 979.526 1409.2 979.661 1409.91 979.918 1410.26 980.296 1410.26 981.188 1410.26 982.309 1409.9 983.66 1409.18 985.011 1408.47 986.429 1407.48 987.915 1406.22 989.401 1404.97 990.887 1403.48 992.373 1401.77 993.859 1400.05 995.197 1398.19 996.386 1396.19 997.574 1394.19 998.54 1392.09 999.283 1389.87 1000.03 1387.66 1000.4 1385.43 1000.4 1383.18 1000.4 1382.21 1000.19 1381.46 999.77 1380.93 999.351 1380.41 998.696 1380.14 997.804 1380.14 996.669 1380.14 995.622 1380.58 994.663 1381.46 993.704 1382.34 992.711 1383.49 991.685 1384.93L989.374 1382.86C990.023 1381.89 990.786 1380.96 991.664 1380.06 992.542 1379.17 993.474 1378.39 994.461 1377.71 995.447 1377.04 996.467 1376.5 997.52 1376.09 998.574 1375.69 999.601 1375.48 1000.6 1375.48Z" fill-rule="evenodd"/><text fill="#000000" fill-opacity="0" font-family="Arial,Arial_MSFontService,sans-serif" font-size="40.2842" x="965.058" y="1410.73">𝑣</text><path d="M1093.85 1352.97C1101.74 1355.05 1107.8 1359.54 1112.03 1366.44 1116.26 1373.34 1118.37 1381.67 1118.37 1391.43 1118.37 1401.21 1116.27 1409.53 1112.05 1416.41 1107.84 1423.29 1101.77 1427.77 1093.85 1429.85L1092.88 1426.72C1099.12 1424.64 1103.76 1420.54 1106.8 1414.4 1109.84 1408.27 1111.36 1400.48 1111.36 1391.02 1111.36 1381.89 1109.85 1374.3 1106.82 1368.26 1103.8 1362.23 1099.11 1358.17 1092.76 1356.09ZM1041.13 1352.97 1042.22 1356.09C1035.9 1358.17 1031.22 1362.23 1028.18 1368.26 1025.14 1374.3 1023.62 1381.89 1023.62 1391.02 1023.62 1400.48 1025.14 1408.27 1028.18 1414.4 1031.22 1420.54 1035.86 1424.64 1042.1 1426.72L1041.13 1429.85C1033.21 1427.77 1027.15 1423.29 1022.93 1416.41 1018.72 1409.53 1016.61 1401.21 1016.61 1391.43 1016.61 1381.67 1018.72 1373.34 1022.95 1366.44 1027.18 1359.54 1033.24 1355.05 1041.13 1352.97Z" fill-rule="evenodd"/><path d="M1064.67 1357.13 1067.02 1357.13 1059.07 1392.51 1060.37 1392.51C1062.4 1392.51 1064.67 1391.62 1067.2 1389.85 1069.73 1388.08 1071.75 1386.44 1073.26 1384.93 1074.77 1383.41 1075.53 1381.95 1075.53 1380.55 1075.53 1379.23 1074.61 1378.48 1072.77 1378.32L1073.22 1376.34 1086.35 1376.34 1087.12 1378.32C1084.88 1380.35 1082.5 1382.33 1079.99 1384.28L1069.94 1392.06 1073.91 1406.69C1074.23 1407.93 1074.52 1408.83 1074.78 1409.39 1075.04 1409.94 1075.33 1410.35 1075.67 1410.62 1076.01 1410.89 1076.46 1411.03 1077.03 1411.03 1077.73 1411.03 1078.57 1410.65 1079.54 1409.89 1080.51 1409.14 1081.62 1408.04 1082.86 1406.61L1085.17 1408.88C1082.74 1411.45 1080.73 1413.23 1079.14 1414.23 1077.54 1415.23 1076 1415.73 1074.52 1415.73 1072.68 1415.73 1071.22 1415.21 1070.14 1414.17 1069.06 1413.13 1068.21 1411.39 1067.59 1408.96L1064.91 1398.42C1064.64 1397.37 1064.37 1396.64 1064.1 1396.23 1063.83 1395.83 1063.52 1395.56 1063.17 1395.42 1062.82 1395.29 1062.19 1395.22 1061.3 1395.22L1058.51 1395.22 1054.29 1415.08 1047.28 1415.08 1057.7 1368.76C1058.05 1367.19 1058.3 1365.97 1058.45 1365.09 1058.59 1364.21 1058.67 1363.43 1058.67 1362.76 1058.67 1361.62 1058.32 1360.83 1057.64 1360.37 1056.95 1359.91 1055.71 1359.65 1053.93 1359.6L1054.41 1357.49Z" fill-rule="evenodd"/><text fill="#000000" fill-opacity="0" font-family="Arial,Arial_MSFontService,sans-serif" font-size="58.6025" x="1047.28" y="1408.4">𝑘</text><path d="M5.15625-6.17966e-06 5.15658 275.344-5.15592 275.344-5.15625 6.17966e-06ZM15.4691 270.188 0.000360892 301.125-15.4684 270.188Z" transform="matrix(1 0 0 -1 1136 1388.13)"/><path d="M1395.66 908.433C1397.39 908.433 1398.75 909.014 1399.75 910.176 1400.75 911.338 1401.25 912.905 1401.25 914.877 1401.25 917.012 1400.83 919.673 1400 922.861L1398.21 929.872C1397.75 931.656 1397.42 933.047 1397.22 934.047 1397.02 935.046 1396.87 935.911 1396.78 936.64 1396.68 937.37 1396.63 937.978 1396.63 938.464 1396.63 940.328 1396.94 941.673 1397.57 942.497 1398.19 943.321 1399.2 943.733 1400.6 943.733 1401.74 943.733 1402.96 943.28 1404.27 942.375 1405.58 941.47 1406.97 940.105 1408.45 938.282 1409.92 936.458 1411.1 934.688 1411.99 932.973 1412.88 931.257 1413.61 929.143 1414.18 926.63L1418.03 909.082 1425.04 909.082 1419.13 934.776C1418.53 937.37 1418.23 939.369 1418.23 940.774 1418.23 941.855 1418.41 942.638 1418.76 943.125 1419.11 943.611 1419.67 943.854 1420.42 943.854 1421.23 943.854 1422.1 943.523 1423.02 942.861 1423.94 942.199 1425.23 940.936 1426.91 939.072L1429.22 941.342C1426.76 943.962 1424.66 945.813 1422.94 946.894 1421.21 947.975 1419.37 948.515 1417.42 948.515 1415.75 948.515 1414.41 947.961 1413.41 946.853 1412.41 945.746 1411.91 944.273 1411.91 942.436 1411.91 940.977 1412.24 939.383 1412.88 937.654L1412.4 937.491C1409.72 941.247 1407.19 944.016 1404.8 945.8 1402.41 947.583 1399.96 948.474 1397.44 948.474 1394.93 948.474 1393 947.752 1391.65 946.306 1390.3 944.861 1389.62 942.855 1389.62 940.288 1389.62 938.586 1390.01 936.168 1390.8 933.033L1393.43 922.415C1394.16 919.47 1394.53 917.39 1394.53 916.174 1394.53 915.093 1394.35 914.31 1394 913.823 1393.65 913.337 1393.09 913.094 1392.34 913.094 1391.5 913.094 1390.61 913.438 1389.68 914.127 1388.75 914.816 1387.47 916.066 1385.85 917.876L1383.54 915.607C1385.84 913.283 1387.57 911.689 1388.73 910.824 1389.89 909.96 1391.01 909.345 1392.07 908.98 1393.14 908.616 1394.34 908.433 1395.66 908.433Z" fill="#FF00FF" fill-rule="evenodd"/><text fill="#000000" fill-opacity="0" font-family="Arial,Arial_MSFontService,sans-serif" font-size="40.0815" x="1383.54" y="943.505">𝑢</text><path d="M1516.75 885.752C1524.64 887.833 1530.69 892.325 1534.92 899.228 1539.15 906.131 1541.27 914.459 1541.27 924.213 1541.27 933.993 1539.16 942.322 1534.94 949.198 1530.73 956.074 1524.66 960.552 1516.75 962.633L1515.77 959.512C1522.01 957.432 1526.66 953.325 1529.69 947.192 1532.73 941.059 1534.25 933.264 1534.25 923.808 1534.25 914.675 1532.74 907.09 1529.71 901.052 1526.69 895.013 1522 890.953 1515.65 888.873ZM1464.02 885.752 1465.12 888.873C1458.79 890.953 1454.11 895.013 1451.07 901.052 1448.03 907.09 1446.51 914.675 1446.51 923.808 1446.51 933.264 1448.03 941.059 1451.07 947.192 1454.11 953.325 1458.75 957.432 1464.99 959.512L1464.02 962.633C1456.11 960.552 1450.04 956.074 1445.82 949.198 1441.61 942.322 1439.5 933.993 1439.5 924.213 1439.5 914.459 1441.62 906.131 1445.85 899.228 1450.07 892.325 1456.13 887.833 1464.02 885.752Z" fill="#FF00FF" fill-rule="evenodd"/><path d="M1487.56 889.912 1489.91 889.912 1481.97 925.293 1483.26 925.293C1485.29 925.293 1487.57 924.408 1490.09 922.638 1492.62 920.868 1494.64 919.227 1496.15 917.714 1497.66 916.201 1498.42 914.742 1498.42 913.337 1498.42 912.013 1497.5 911.27 1495.67 911.108L1496.11 909.122 1509.24 909.122 1510.01 911.108C1507.77 913.135 1505.39 915.12 1502.88 917.066L1492.83 924.847 1496.8 939.477C1497.12 940.72 1497.41 941.618 1497.67 942.172 1497.93 942.726 1498.23 943.138 1498.56 943.408 1498.9 943.679 1499.35 943.814 1499.92 943.814 1500.62 943.814 1501.46 943.435 1502.43 942.679 1503.41 941.922 1504.51 940.828 1505.76 939.396L1508.07 941.666C1505.64 944.232 1503.62 946.016 1502.03 947.015 1500.43 948.015 1498.89 948.515 1497.41 948.515 1495.57 948.515 1494.11 947.995 1493.03 946.955 1491.95 945.914 1491.1 944.178 1490.48 941.747L1487.8 931.21C1487.53 930.156 1487.26 929.427 1486.99 929.021 1486.72 928.616 1486.41 928.346 1486.06 928.211 1485.71 928.076 1485.09 928.008 1484.2 928.008L1481.4 928.008 1477.18 947.866 1470.17 947.866 1480.59 901.544C1480.94 899.977 1481.19 898.754 1481.34 897.876 1481.49 896.998 1481.56 896.221 1481.56 895.546 1481.56 894.411 1481.22 893.614 1480.53 893.155 1479.84 892.695 1478.6 892.439 1476.82 892.385L1477.31 890.277Z" fill="#FF00FF" fill-rule="evenodd"/><text fill="#000000" fill-opacity="0" font-family="Arial,Arial_MSFontService,sans-serif" font-size="58.6025" x="1470.17" y="941.19">𝑘</text><path d="M2156.63 908.475C2157.74 908.475 2158.68 908.623 2159.47 908.92 2160.01 909.137 2160.55 909.495 2161.09 909.994 2161.63 910.494 2162.11 911.19 2162.53 912.082 2162.95 912.973 2163.31 913.973 2163.62 915.081 2163.93 916.188 2164.28 917.782 2164.66 919.863 2165.3 923.348 2165.93 927.016 2166.54 930.866 2167.15 934.716 2167.67 938.289 2168.1 941.585 2170.72 937.803 2172.94 934.101 2174.77 930.481 2176.59 926.861 2177.9 923.713 2178.7 921.038 2179.5 918.363 2179.89 916.188 2179.89 914.513 2179.89 913.243 2179.62 912.379 2179.08 911.919 2178.54 911.46 2177.62 911.19 2176.33 911.109L2176.73 909.123 2187.39 909.123 2188.49 911.149C2186.43 916.769 2183.65 922.781 2180.14 929.184 2176.68 935.452 2172.72 941.694 2168.26 947.908 2163.99 953.825 2160.44 958.107 2157.6 960.755 2155.63 962.565 2153.73 963.862 2151.89 964.646 2150.43 965.24 2148.88 965.537 2147.23 965.537 2146.66 965.537 2146.01 965.49 2145.26 965.395 2144.52 965.301 2143.95 965.172 2143.54 965.01L2145.28 957.148 2148.49 957.148C2148.49 958.877 2149.08 959.742 2150.27 959.742 2151.84 959.742 2153.66 958.762 2155.74 956.803 2157.82 954.845 2160.27 951.893 2163.08 947.948 2162.29 943.22 2161.22 937.519 2159.87 930.846 2158.44 923.713 2157.5 919.295 2157.04 917.593 2156.47 915.54 2155.87 914.229 2155.25 913.662 2154.88 913.311 2154.4 913.135 2153.83 913.135 2152.97 913.135 2152.16 913.487 2151.4 914.189 2150.65 914.891 2149.71 916.107 2148.61 917.836L2145.97 916.094C2147.84 913.311 2149.58 911.345 2151.2 910.197 2152.82 909.049 2154.63 908.475 2156.63 908.475Z" fill="#00B050" fill-rule="evenodd"/><text fill="#000000" fill-opacity="0" font-family="Arial,Arial_MSFontService,sans-serif" font-size="57.0625" x="2143.54" y="958.404">𝑦</text><path d="M2275.62 885.753C2283.51 887.833 2289.57 892.325 2293.8 899.228 2298.03 906.132 2300.14 914.46 2300.14 924.214 2300.14 933.994 2298.03 942.323 2293.82 949.199 2289.6 956.075 2283.54 960.553 2275.62 962.633L2274.65 959.513C2280.89 957.432 2285.53 953.326 2288.57 947.193 2291.61 941.059 2293.13 933.265 2293.13 923.808 2293.13 914.676 2291.62 907.091 2288.59 901.052 2285.57 895.014 2280.88 890.954 2274.53 888.874ZM2222.9 885.753 2223.99 888.874C2217.67 890.954 2212.99 895.014 2209.95 901.052 2206.91 907.091 2205.39 914.676 2205.39 923.808 2205.39 933.265 2206.91 941.059 2209.95 947.193 2212.99 953.326 2217.63 957.432 2223.87 959.513L2222.9 962.633C2214.98 960.553 2208.92 956.075 2204.7 949.199 2200.49 942.323 2198.38 933.994 2198.38 924.214 2198.38 914.46 2200.49 906.132 2204.72 899.228 2208.95 892.325 2215.01 887.833 2222.9 885.753Z" fill="#00B050" fill-rule="evenodd"/><path d="M2246.44 889.913 2248.79 889.913 2240.84 925.293 2242.14 925.293C2244.17 925.293 2246.44 924.409 2248.97 922.639 2251.5 920.869 2253.52 919.228 2255.03 917.715 2256.54 916.202 2257.3 914.743 2257.3 913.338 2257.3 912.014 2256.38 911.271 2254.54 911.109L2254.99 909.123 2268.12 909.123 2268.89 911.109C2266.65 913.135 2264.27 915.121 2261.76 917.066L2251.71 924.848 2255.68 939.478C2256 940.721 2256.29 941.619 2256.55 942.173 2256.8 942.727 2257.1 943.139 2257.44 943.409 2257.78 943.679 2258.23 943.814 2258.8 943.814 2259.5 943.814 2260.34 943.436 2261.31 942.68 2262.28 941.923 2263.39 940.829 2264.63 939.397L2266.94 941.667C2264.51 944.233 2262.5 946.016 2260.9 947.016 2259.31 948.016 2257.77 948.516 2256.28 948.516 2254.45 948.516 2252.99 947.996 2251.91 946.955 2250.83 945.915 2249.98 944.179 2249.35 941.748L2246.68 931.21C2246.41 930.157 2246.14 929.427 2245.87 929.022 2245.6 928.617 2245.29 928.346 2244.94 928.211 2244.59 928.076 2243.96 928.009 2243.07 928.009L2240.28 928.009 2236.06 947.867 2229.05 947.867 2239.47 901.544C2239.82 899.977 2240.07 898.755 2240.22 897.877 2240.36 896.999 2240.44 896.222 2240.44 895.546 2240.44 894.412 2240.09 893.615 2239.41 893.155 2238.72 892.696 2237.48 892.439 2235.7 892.385L2236.18 890.278Z" fill="#00B050" fill-rule="evenodd"/><text fill="#000000" fill-opacity="0" font-family="Arial,Arial_MSFontService,sans-serif" font-size="58.6025" x="2229.05" y="941.19">𝑘</text><path d="M3048.06 911.635C3045.33 911.635 3042.71 913.013 3040.18 915.769 3037.65 918.525 3035.72 922.254 3034.36 926.955 3038.17 926.928 3041.44 926.583 3044.17 925.921 3046.9 925.259 3049 924.206 3050.45 922.76 3051.91 921.315 3052.64 919.363 3052.64 916.904 3052.64 915.256 3052.26 913.966 3051.49 913.034 3050.72 912.101 3049.58 911.635 3048.06 911.635ZM3049.52 908.434C3052.79 908.434 3055.24 909.096 3056.88 910.42 3058.51 911.743 3059.33 913.81 3059.33 916.62 3059.33 921.213 3057.18 924.658 3052.87 926.955 3048.56 929.251 3042.16 930.4 3033.68 930.4 3033.35 932.021 3033.19 933.777 3033.19 935.668 3033.19 938.505 3033.74 940.565 3034.85 941.849 3035.96 943.132 3037.77 943.774 3040.28 943.774 3042.77 943.774 3045.02 943.233 3047.03 942.152 3049.04 941.072 3051.17 939.41 3053.41 937.168L3055.93 939.802C3053.3 942.693 3050.65 944.868 3047.96 946.327 3045.27 947.786 3042.15 948.515 3038.58 948.515 3034.66 948.515 3031.63 947.32 3029.48 944.929 3027.33 942.537 3026.26 939.207 3026.26 934.939 3026.26 932.048 3026.78 928.947 3027.82 925.638 3028.86 922.328 3030.43 919.356 3032.54 916.722 3034.65 914.087 3037.17 912.047 3040.12 910.602 3043.06 909.156 3046.2 908.434 3049.52 908.434Z" fill="#FF0000" fill-rule="evenodd"/><text fill="#000000" fill-opacity="0" font-family="Arial,Arial_MSFontService,sans-serif" font-size="40.0815" x="3026.26" y="943.505">𝑒</text><path d="M3149.03 885.753C3156.92 887.833 3162.98 892.325 3167.21 899.228 3171.44 906.131 3173.55 914.46 3173.55 924.213 3173.55 933.994 3171.44 942.322 3167.23 949.198 3163.01 956.074 3156.95 960.553 3149.03 962.633L3148.06 959.513C3154.3 957.432 3158.94 953.325 3161.98 947.192 3165.02 941.059 3166.54 933.264 3166.54 923.808 3166.54 914.676 3165.02 907.09 3162 901.052 3158.97 895.013 3154.29 890.954 3147.94 888.873ZM3096.31 885.753 3097.4 888.873C3091.08 890.954 3086.4 895.013 3083.36 901.052 3080.32 907.09 3078.8 914.676 3078.8 923.808 3078.8 933.264 3080.32 941.059 3083.36 947.192 3086.4 953.325 3091.04 957.432 3097.28 959.513L3096.31 962.633C3088.39 960.553 3082.32 956.074 3078.11 949.198 3073.89 942.322 3071.79 933.994 3071.79 924.213 3071.79 914.46 3073.9 906.131 3078.13 899.228 3082.36 892.325 3088.42 887.833 3096.31 885.753Z" fill="#FF0000" fill-rule="evenodd"/><path d="M3119.84 889.913 3122.19 889.913 3114.25 925.293 3115.55 925.293C3117.57 925.293 3119.85 924.408 3122.38 922.639 3124.9 920.869 3126.92 919.227 3128.44 917.714 3129.95 916.201 3130.71 914.742 3130.71 913.338 3130.71 912.014 3129.79 911.271 3127.95 911.109L3128.4 909.123 3141.53 909.123 3142.3 911.109C3140.05 913.135 3137.68 915.121 3135.16 917.066L3125.11 924.847 3129.08 939.478C3129.41 940.721 3129.7 941.619 3129.96 942.173 3130.21 942.727 3130.51 943.139 3130.85 943.409 3131.18 943.679 3131.64 943.814 3132.2 943.814 3132.91 943.814 3133.74 943.436 3134.72 942.679 3135.69 941.923 3136.8 940.829 3138.04 939.397L3140.35 941.666C3137.92 944.233 3135.91 946.016 3134.31 947.016 3132.72 948.015 3131.18 948.515 3129.69 948.515 3127.85 948.515 3126.4 947.995 3125.32 946.955 3124.23 945.915 3123.38 944.179 3122.76 941.747L3120.09 931.21C3119.82 930.156 3119.55 929.427 3119.28 929.022 3119.01 928.616 3118.7 928.346 3118.34 928.211 3117.99 928.076 3117.37 928.008 3116.48 928.008L3113.68 928.008 3109.47 947.867 3102.46 947.867 3112.87 901.544C3113.22 899.977 3113.47 898.754 3113.62 897.876 3113.77 896.998 3113.85 896.221 3113.85 895.546 3113.85 894.411 3113.5 893.614 3112.81 893.155 3112.12 892.696 3110.89 892.439 3109.1 892.385L3109.59 890.277Z" fill="#FF0000" fill-rule="evenodd"/><text fill="#000000" fill-opacity="0" font-family="Arial,Arial_MSFontService,sans-serif" font-size="58.6025" x="3102.46" y="941.19">𝑘</text><path d="M1732.24 1225.32C1734.81 1225.32 1737.16 1225.47 1739.29 1225.78 1741.43 1226.09 1743.76 1226.66 1746.3 1227.47L1743.83 1238.37 1739.94 1238.37C1739.7 1234.99 1738.95 1232.57 1737.71 1231.09 1736.47 1229.62 1734.44 1228.88 1731.63 1228.88 1729.36 1228.88 1727.24 1229.46 1725.27 1230.63 1723.3 1231.79 1721.43 1233.52 1719.66 1235.83 1717.89 1238.14 1716.29 1241.06 1714.87 1244.57 1713.46 1248.08 1712.35 1251.74 1711.57 1255.55 1710.79 1259.36 1710.4 1262.94 1710.4 1266.29 1710.4 1270.51 1711.12 1273.58 1712.56 1275.51 1714.01 1277.44 1716.27 1278.41 1719.35 1278.41 1720.46 1278.41 1721.59 1278.28 1722.76 1278.02 1723.92 1277.77 1725.01 1277.33 1726.02 1276.71 1727.03 1276.08 1727.93 1275.25 1728.71 1274.19 1729.5 1273.14 1730.06 1271.82 1730.42 1270.22L1730.86 1268.32C1731.46 1265.78 1731.75 1263.6 1731.75 1261.79 1731.75 1260.52 1731.44 1259.64 1730.8 1259.14 1730.17 1258.64 1729.16 1258.35 1727.78 1258.27L1728.23 1256.28 1744.44 1256.28 1743.99 1258.27C1742.97 1258.48 1742.22 1258.73 1741.76 1259 1741.3 1259.27 1740.89 1259.68 1740.53 1260.23 1740.16 1260.79 1739.8 1261.63 1739.45 1262.76 1739.1 1263.9 1738.64 1265.76 1738.08 1268.36L1735.28 1281.08 1732.08 1281.97 1729.97 1278.77C1727.16 1280.1 1724.94 1280.95 1723.32 1281.35 1721.7 1281.74 1720.05 1281.93 1718.38 1281.93 1713.3 1281.93 1709.44 1280.48 1706.79 1277.56 1704.14 1274.64 1702.82 1270.37 1702.82 1264.75 1702.82 1260.72 1703.49 1256.21 1704.84 1251.19 1706.19 1246.18 1708.16 1241.7 1710.74 1237.76 1713.32 1233.81 1716.44 1230.76 1720.1 1228.58 1723.76 1226.41 1727.81 1225.32 1732.24 1225.32Z" fill="#00B0F0" fill-rule="evenodd"/><text fill="#000000" fill-opacity="0" font-family="Arial,Arial_MSFontService,sans-serif" font-size="56.6572" x="1702.82" y="1274.89">𝐺</text><path d="M1831.5 1219.17C1839.39 1221.25 1845.45 1225.74 1849.68 1232.65 1853.9 1239.55 1856.02 1247.88 1856.02 1257.63 1856.02 1267.41 1853.91 1275.74 1849.7 1282.62 1845.48 1289.49 1839.42 1293.97 1831.5 1296.05L1830.53 1292.93C1836.77 1290.85 1841.41 1286.74 1844.45 1280.61 1847.49 1274.48 1849.01 1266.68 1849.01 1257.23 1849.01 1248.09 1847.49 1240.51 1844.47 1234.47 1841.44 1228.43 1836.75 1224.37 1830.4 1222.29ZM1784.92 1219.17 1786.01 1222.29C1779.69 1224.37 1775.01 1228.43 1771.97 1234.47 1768.93 1240.51 1767.41 1248.09 1767.41 1257.23 1767.41 1266.68 1768.93 1274.48 1771.97 1280.61 1775.01 1286.74 1779.65 1290.85 1785.89 1292.93L1784.92 1296.05C1777 1293.97 1770.93 1289.49 1766.72 1282.62 1762.5 1275.74 1760.4 1267.41 1760.4 1257.63 1760.4 1247.88 1762.51 1239.55 1766.74 1232.65 1770.97 1225.74 1777.03 1221.25 1784.92 1219.17Z" fill="#00B0F0" fill-rule="evenodd"/><path d="M1796.86 1242.54 1825.68 1242.54 1826.45 1244.57 1807.12 1266.78C1803.36 1271.07 1800.11 1274.72 1797.35 1277.72L1797.59 1278 1806.75 1278C1808.37 1278 1809.62 1277.92 1810.48 1277.74 1811.35 1277.56 1812.1 1277.23 1812.75 1276.75 1813.4 1276.26 1814.07 1275.52 1814.76 1274.54 1815.45 1273.55 1816.3 1272.01 1817.33 1269.9L1820.94 1269.9 1818.46 1281.29 1789.12 1281.29 1788.35 1279.3 1810.52 1253.77C1813.66 1250.17 1815.95 1247.62 1817.41 1246.11L1817.17 1245.82 1807.68 1245.82C1806.28 1245.82 1805.25 1245.92 1804.6 1246.11 1803.96 1246.3 1803.31 1246.63 1802.66 1247.1 1802.01 1247.57 1801.31 1248.28 1800.57 1249.21 1799.83 1250.14 1799 1251.47 1798.08 1253.2L1794.47 1253.2Z" fill="#00B0F0" fill-rule="evenodd"/><text fill="#000000" fill-opacity="0" font-family="Arial,Arial_MSFontService,sans-serif" font-size="38.7441" x="1788.35" y="1276.44">𝑧</text><path d="M1892.06 1263.29 1941.99 1263.29 1941.99 1268.68 1892.06 1268.68ZM1892.06 1246.47 1941.99 1246.47 1941.99 1251.86 1892.06 1251.86Z" fill-rule="evenodd"/><text fill="#000000" fill-opacity="0" font-family="Arial,Arial_MSFontService,sans-serif" font-size="22.209" x="1892.06" y="1265.91">=</text><path d="M1999.06 1184.19C1997.76 1184.19 1996.48 1184.6 1995.23 1185.42 1993.97 1186.25 1992.57 1187.61 1991.03 1189.52 1989.49 1191.42 1988.24 1193.37 1987.26 1195.37 1986.29 1197.37 1985.47 1199.93 1984.79 1203.03L1984.43 1204.73C1984.02 1206.63 1983.82 1208.46 1983.82 1210.25 1983.82 1212.38 1984.29 1213.92 1985.22 1214.87 1986.15 1215.81 1987.7 1216.28 1989.86 1216.28 1990.97 1216.28 1992.02 1216.1 1993.02 1215.74 1994.02 1215.37 1995.04 1214.77 1996.08 1213.93 1997.12 1213.1 1998.11 1212 1999.04 1210.63 1999.97 1209.27 2000.83 1207.58 2001.61 1205.59 2002.39 1203.59 2003 1201.45 2003.43 1199.16 2003.87 1196.88 2004.08 1194.7 2004.08 1192.62 2004.08 1189.81 2003.68 1187.7 2002.89 1186.29 2002.09 1184.89 2000.81 1184.19 1999.06 1184.19ZM1991.97 1160.88 1994.32 1160.88 1987.18 1189.25 1987.71 1189.42C1990.33 1185.9 1992.79 1183.36 1995.09 1181.8 1997.38 1180.23 1999.68 1179.45 2001.98 1179.45 2004.92 1179.45 2007.21 1180.57 2008.85 1182.81 2010.48 1185.05 2011.3 1188.21 2011.3 1192.29 2011.3 1196.75 2010.4 1201.13 2008.6 1205.44 2006.81 1209.75 2004.31 1213.17 2001.12 1215.7 1997.94 1218.22 1994.37 1219.49 1990.43 1219.49 1986.83 1219.49 1983.64 1218.61 1980.86 1216.85L1977.13 1219.49 1974.54 1218.84 1985.04 1172.52C1985.66 1169.76 1985.97 1167.76 1985.97 1166.52 1985.97 1165.38 1985.62 1164.59 1984.93 1164.13 1984.25 1163.67 1983.01 1163.41 1981.23 1163.36L1981.71 1161.25Z" fill-rule="evenodd"/><text fill="#000000" fill-opacity="0" font-family="Arial,Arial_MSFontService,sans-serif" font-size="58.6025" x="1974.54" y="1212.16">𝑏</text><path d="M2030.55 1200C2029.16 1200 2028 1200.36 2027.06 1201.09 2026.13 1201.81 2025.39 1202.87 2024.84 1204.27 2024.3 1205.67 2023.91 1207.38 2023.68 1209.4 2023.45 1211.41 2023.34 1213.7 2023.34 1216.26 2023.34 1219.22 2023.48 1221.78 2023.77 1223.93 2024.06 1226.09 2024.51 1227.86 2025.11 1229.25 2025.72 1230.64 2026.48 1231.66 2027.39 1232.32 2028.3 1232.97 2029.4 1233.3 2030.67 1233.3 2031.86 1233.3 2032.9 1232.99 2033.79 1232.38 2034.69 1231.76 2035.43 1230.8 2036.01 1229.5 2036.6 1228.2 2037.04 1226.55 2037.34 1224.56 2037.64 1222.56 2037.79 1220.2 2037.79 1217.48 2037.79 1214.43 2037.62 1211.79 2037.29 1209.59 2036.97 1207.39 2036.5 1205.57 2035.91 1204.15 2035.31 1202.73 2034.56 1201.69 2033.66 1201.01 2032.76 1200.34 2031.72 1200 2030.55 1200ZM2030.67 1197.11C2033.03 1197.11 2035.05 1197.55 2036.73 1198.44 2038.41 1199.32 2039.78 1200.58 2040.84 1202.22 2041.9 1203.86 2042.68 1205.86 2043.18 1208.22 2043.67 1210.58 2043.92 1213.25 2043.92 1216.23 2043.92 1222.84 2042.75 1227.84 2040.41 1231.23 2038.06 1234.61 2034.67 1236.31 2030.22 1236.31 2025.81 1236.31 2022.54 1234.71 2020.39 1231.51 2018.25 1228.31 2017.17 1223.47 2017.17 1216.98 2017.17 1213.58 2017.51 1210.64 2018.17 1208.16 2018.84 1205.68 2019.77 1203.62 2020.97 1201.98 2022.17 1200.34 2023.6 1199.12 2025.25 1198.32 2026.89 1197.51 2028.7 1197.11 2030.67 1197.11Z" fill-rule="evenodd"/><text fill="#000000" fill-opacity="0" font-family="Arial,Arial_MSFontService,sans-serif" font-size="39.1973" x="2017.17" y="1231.41">0</text><path d="M2097.71 1169.07 2103.46 1169.07 2103.46 1192.41 2125.55 1192.41 2125.55 1197.8 2103.46 1197.8 2103.46 1221.15 2097.71 1221.15 2097.71 1197.8 2075.62 1197.8 2075.62 1192.41 2097.71 1192.41Z" fill-rule="evenodd"/><text fill="#000000" fill-opacity="0" font-family="Arial,Arial_MSFontService,sans-serif" font-size="52.0776" x="2075.62" y="1214.64">+</text><path d="M2178.04 1184.19C2176.74 1184.19 2175.46 1184.6 2174.21 1185.42 2172.95 1186.25 2171.55 1187.61 2170.01 1189.52 2168.47 1191.42 2167.22 1193.37 2166.24 1195.37 2165.27 1197.37 2164.45 1199.93 2163.77 1203.03L2163.41 1204.73C2163 1206.63 2162.8 1208.46 2162.8 1210.25 2162.8 1212.38 2163.26 1213.92 2164.2 1214.87 2165.13 1215.81 2166.68 1216.28 2168.84 1216.28 2169.95 1216.28 2171 1216.1 2172 1215.74 2173 1215.37 2174.02 1214.77 2175.06 1213.93 2176.1 1213.1 2177.08 1212 2178.02 1210.63 2178.95 1209.27 2179.81 1207.58 2180.59 1205.59 2181.37 1203.59 2181.98 1201.45 2182.41 1199.16 2182.85 1196.88 2183.06 1194.7 2183.06 1192.62 2183.06 1189.81 2182.66 1187.7 2181.87 1186.29 2181.07 1184.89 2179.79 1184.19 2178.04 1184.19ZM2170.94 1160.88 2173.3 1160.88 2166.16 1189.25 2166.69 1189.42C2169.31 1185.9 2171.77 1183.36 2174.07 1181.8 2176.36 1180.23 2178.66 1179.45 2180.96 1179.45 2183.9 1179.45 2186.19 1180.57 2187.82 1182.81 2189.46 1185.05 2190.28 1188.21 2190.28 1192.29 2190.28 1196.75 2189.38 1201.13 2187.58 1205.44 2185.78 1209.75 2183.29 1213.17 2180.1 1215.7 2176.92 1218.22 2173.35 1219.49 2169.4 1219.49 2165.81 1219.49 2162.62 1218.61 2159.84 1216.85L2156.11 1219.49 2153.52 1218.84 2164.01 1172.52C2164.64 1169.76 2164.95 1167.76 2164.95 1166.52 2164.95 1165.38 2164.6 1164.59 2163.91 1164.13 2163.22 1163.67 2161.99 1163.41 2160.21 1163.36L2160.69 1161.25Z" fill-rule="evenodd"/><text fill="#000000" fill-opacity="0" font-family="Arial,Arial_MSFontService,sans-serif" font-size="58.6025" x="2153.52" y="1212.16">𝑏</text><path d="M2210.07 1197.32 2211.88 1197.32C2211.84 1198.41 2211.81 1199.39 2211.79 1200.25 2211.78 1201.12 2211.76 1201.96 2211.75 1202.77 2211.74 1203.58 2211.74 1204.39 2211.74 1205.18L2211.74 1227.82C2211.74 1228.43 2211.76 1228.97 2211.79 1229.41 2211.83 1229.86 2211.9 1230.24 2211.99 1230.54 2212.08 1230.85 2212.2 1231.11 2212.35 1231.33 2212.49 1231.55 2212.67 1231.74 2212.87 1231.9 2213.11 1232.14 2213.42 1232.32 2213.82 1232.45 2214.22 1232.58 2214.72 1232.69 2215.34 1232.78 2215.95 1232.87 2216.69 1232.94 2217.56 1232.99 2218.42 1233.04 2219.46 1233.07 2220.67 1233.09L2220.67 1235.68 2197.05 1235.68 2197.05 1233.09C2198.22 1233.05 2199.22 1233.01 2200.03 1232.96 2200.84 1232.91 2201.54 1232.84 2202.11 1232.75 2202.69 1232.66 2203.15 1232.56 2203.5 1232.45 2203.85 1232.34 2204.15 1232.21 2204.41 1232.05 2204.69 1231.87 2204.92 1231.68 2205.12 1231.47 2205.32 1231.26 2205.48 1231 2205.6 1230.68 2205.72 1230.36 2205.81 1229.97 2205.88 1229.52 2205.95 1229.06 2205.99 1228.49 2205.99 1227.82L2205.99 1206.46C2205.99 1205.69 2205.84 1205.14 2205.54 1204.82 2205.24 1204.51 2204.82 1204.35 2204.26 1204.35 2203.64 1204.35 2202.73 1204.67 2201.52 1205.3 2200.31 1205.94 2198.74 1206.88 2196.81 1208.13 2196.55 1207.67 2196.32 1207.22 2196.1 1206.76 2195.88 1206.3 2195.65 1205.84 2195.41 1205.36 2197.88 1204.01 2200.31 1202.66 2202.73 1201.32 2205.14 1199.98 2207.59 1198.65 2210.07 1197.32Z" fill-rule="evenodd"/><text fill="#000000" fill-opacity="0" font-family="Arial,Arial_MSFontService,sans-serif" font-size="38.3633" x="2195.41" y="1230.89">1</text><path d="M2237.85 1180.09 2266.66 1180.09 2267.43 1182.12 2248.1 1204.33C2244.35 1208.63 2241.09 1212.27 2238.34 1215.27L2238.58 1215.56 2247.74 1215.56C2249.36 1215.56 2250.6 1215.47 2251.47 1215.29 2252.33 1215.12 2253.09 1214.79 2253.74 1214.3 2254.38 1213.81 2255.05 1213.08 2255.74 1212.09 2256.43 1211.1 2257.29 1209.56 2258.32 1207.45L2261.92 1207.45 2259.45 1218.84 2230.11 1218.84 2229.34 1216.85 2251.51 1191.32C2254.64 1187.73 2256.94 1185.17 2258.4 1183.66L2258.15 1183.38 2248.67 1183.38C2247.26 1183.38 2246.24 1183.47 2245.59 1183.66 2244.94 1183.85 2244.29 1184.18 2243.64 1184.65 2243 1185.13 2242.3 1185.83 2241.56 1186.76 2240.81 1187.69 2239.98 1189.02 2239.06 1190.75L2235.46 1190.75Z" fill-rule="evenodd"/><text fill="#000000" fill-opacity="0" font-family="Arial,Arial_MSFontService,sans-serif" font-size="38.7441" x="2229.34" y="1213.99">𝑧</text><path d="M2277.5 1168.92 2311.81 1168.92 2311.81 1173.47 2277.5 1173.47Z" fill-rule="evenodd"/><text fill="#000000" fill-opacity="0" font-family="Arial,Arial_MSFontService,sans-serif" font-size="4.55713" x="2277.5" y="1172.9">−</text><path d="M2336.11 1150.27 2337.93 1150.27C2337.89 1151.36 2337.86 1152.34 2337.84 1153.2 2337.82 1154.07 2337.8 1154.91 2337.79 1155.72 2337.78 1156.54 2337.78 1157.34 2337.78 1158.13L2337.78 1180.77C2337.78 1181.39 2337.8 1181.92 2337.84 1182.36 2337.88 1182.81 2337.94 1183.19 2338.03 1183.5 2338.12 1183.8 2338.24 1184.07 2338.39 1184.29 2338.54 1184.5 2338.71 1184.69 2338.91 1184.85 2339.15 1185.09 2339.46 1185.27 2339.86 1185.4 2340.26 1185.53 2340.77 1185.64 2341.38 1185.73 2342 1185.82 2342.74 1185.89 2343.6 1185.94 2344.46 1185.99 2345.5 1186.02 2346.71 1186.04L2346.71 1188.63 2323.09 1188.63 2323.09 1186.04C2324.26 1186 2325.26 1185.96 2326.07 1185.91 2326.89 1185.86 2327.58 1185.79 2328.16 1185.7 2328.73 1185.61 2329.19 1185.51 2329.54 1185.4 2329.89 1185.29 2330.19 1185.16 2330.45 1185 2330.73 1184.82 2330.97 1184.63 2331.16 1184.42 2331.36 1184.21 2331.52 1183.95 2331.64 1183.63 2331.76 1183.31 2331.85 1182.92 2331.92 1182.47 2331.99 1182.01 2332.03 1181.45 2332.03 1180.77L2332.03 1159.41C2332.03 1158.64 2331.88 1158.09 2331.58 1157.78 2331.28 1157.46 2330.86 1157.3 2330.3 1157.3 2329.69 1157.3 2328.77 1157.62 2327.56 1158.25 2326.35 1158.89 2324.78 1159.83 2322.85 1161.08 2322.6 1160.63 2322.36 1160.17 2322.14 1159.71 2321.92 1159.26 2321.69 1158.79 2321.45 1158.31 2323.92 1156.96 2326.35 1155.62 2328.77 1154.28 2331.18 1152.94 2333.63 1151.6 2336.11 1150.27Z" fill-rule="evenodd"/><text fill="#000000" fill-opacity="0" font-family="Arial,Arial_MSFontService,sans-serif" font-size="38.3633" x="2321.45" y="1183.84">1</text><path d="M2400.83 1169.07 2406.58 1169.07 2406.58 1192.41 2428.67 1192.41 2428.67 1197.8 2406.58 1197.8 2406.58 1221.15 2400.83 1221.15 2400.83 1197.8 2378.74 1197.8 2378.74 1192.41 2400.83 1192.41Z" fill-rule="evenodd"/><text fill="#000000" fill-opacity="0" font-family="Arial,Arial_MSFontService,sans-serif" font-size="52.0776" x="2378.74" y="1214.64">+</text><path d="M2481.16 1184.19C2479.86 1184.19 2478.58 1184.6 2477.33 1185.42 2476.07 1186.25 2474.67 1187.61 2473.13 1189.52 2471.59 1191.42 2470.33 1193.37 2469.36 1195.37 2468.39 1197.37 2467.57 1199.93 2466.89 1203.03L2466.53 1204.73C2466.12 1206.63 2465.92 1208.46 2465.92 1210.25 2465.92 1212.38 2466.38 1213.92 2467.32 1214.87 2468.25 1215.81 2469.79 1216.28 2471.96 1216.28 2473.06 1216.28 2474.12 1216.1 2475.12 1215.74 2476.12 1215.37 2477.14 1214.77 2478.18 1213.93 2479.22 1213.1 2480.2 1212 2481.14 1210.63 2482.07 1209.27 2482.93 1207.58 2483.71 1205.59 2484.49 1203.59 2485.1 1201.45 2485.53 1199.16 2485.97 1196.88 2486.18 1194.7 2486.18 1192.62 2486.18 1189.81 2485.78 1187.7 2484.99 1186.29 2484.19 1184.89 2482.91 1184.19 2481.16 1184.19ZM2474.06 1160.88 2476.41 1160.88 2469.28 1189.25 2469.81 1189.42C2472.43 1185.9 2474.89 1183.36 2477.18 1181.8 2479.48 1180.23 2481.78 1179.45 2484.07 1179.45 2487.02 1179.45 2489.31 1180.57 2490.94 1182.81 2492.58 1185.05 2493.4 1188.21 2493.4 1192.29 2493.4 1196.75 2492.5 1201.13 2490.7 1205.44 2488.9 1209.75 2486.41 1213.17 2483.22 1215.7 2480.03 1218.22 2476.47 1219.49 2472.52 1219.49 2468.93 1219.49 2465.74 1218.61 2462.96 1216.85L2459.23 1219.49 2456.64 1218.84 2467.13 1172.52C2467.75 1169.76 2468.07 1167.76 2468.07 1166.52 2468.07 1165.38 2467.72 1164.59 2467.03 1164.13 2466.34 1163.67 2465.11 1163.41 2463.32 1163.36L2463.81 1161.25Z" fill-rule="evenodd"/><text fill="#000000" fill-opacity="0" font-family="Arial,Arial_MSFontService,sans-serif" font-size="58.6025" x="2456.64" y="1212.16">𝑏</text><path d="M2512.76 1197.11C2514.83 1197.11 2516.59 1197.34 2518.05 1197.81 2519.51 1198.28 2520.7 1198.91 2521.61 1199.7 2522.52 1200.5 2523.18 1201.45 2523.59 1202.56 2524 1203.67 2524.2 1204.87 2524.2 1206.16 2524.2 1206.94 2524.15 1207.66 2524.04 1208.32 2523.93 1208.99 2523.74 1209.64 2523.47 1210.29 2523.2 1210.94 2522.85 1211.59 2522.42 1212.24 2521.98 1212.9 2521.43 1213.59 2520.78 1214.33 2520.28 1214.96 2519.64 1215.7 2518.84 1216.53 2518.05 1217.36 2517.18 1218.26 2516.23 1219.21 2515.29 1220.16 2514.3 1221.16 2513.27 1222.19 2512.24 1223.22 2511.24 1224.24 2510.26 1225.26 2509.29 1226.27 2508.4 1227.25 2507.58 1228.21 2506.77 1229.16 2506.1 1230.03 2505.59 1230.83L2516.61 1230.83C2517.54 1230.83 2518.29 1230.79 2518.84 1230.72 2519.4 1230.65 2519.86 1230.5 2520.23 1230.26 2520.59 1230.02 2520.91 1229.66 2521.16 1229.17 2521.42 1228.69 2521.72 1228.02 2522.06 1227.16L2524.83 1227.16C2524.73 1228.57 2524.63 1229.99 2524.54 1231.42 2524.46 1232.85 2524.36 1234.27 2524.26 1235.68L2499.03 1235.68 2499.03 1234.13C2499.51 1233.06 2500.07 1232 2500.7 1230.96 2501.34 1229.92 2502.05 1228.86 2502.85 1227.79 2503.64 1226.72 2504.54 1225.61 2505.56 1224.47 2506.57 1223.33 2507.69 1222.14 2508.92 1220.91 2510.79 1219.04 2512.31 1217.45 2513.48 1216.13 2514.65 1214.81 2515.57 1213.63 2516.25 1212.6 2516.92 1211.57 2517.39 1210.61 2517.63 1209.74 2517.88 1208.87 2518.01 1207.93 2518.01 1206.94 2518.01 1205.93 2517.86 1204.99 2517.58 1204.14 2517.29 1203.29 2516.88 1202.56 2516.34 1201.96 2515.8 1201.37 2515.12 1200.9 2514.3 1200.57 2513.47 1200.23 2512.53 1200.06 2511.45 1200.06 2509.61 1200.06 2508.06 1200.56 2506.81 1201.56 2505.56 1202.57 2504.58 1204.02 2503.89 1205.93L2499.99 1205.93 2499.99 1200.12C2502.53 1199.07 2504.87 1198.3 2507 1197.82 2509.14 1197.35 2511.06 1197.11 2512.76 1197.11Z" fill-rule="evenodd"/><text fill="#000000" fill-opacity="0" font-family="Arial,Arial_MSFontService,sans-serif" font-size="38.5718" x="2499.03" y="1230.86">2</text><path d="M2542.87 1180.09 2571.68 1180.09 2572.45 1182.12 2553.12 1204.33C2549.37 1208.63 2546.11 1212.27 2543.36 1215.27L2543.6 1215.56 2552.76 1215.56C2554.38 1215.56 2555.62 1215.47 2556.49 1215.29 2557.35 1215.12 2558.11 1214.79 2558.76 1214.3 2559.4 1213.81 2560.07 1213.08 2560.76 1212.09 2561.45 1211.1 2562.31 1209.56 2563.34 1207.45L2566.94 1207.45 2564.47 1218.84 2535.13 1218.84 2534.36 1216.85 2556.53 1191.32C2559.66 1187.73 2561.96 1185.17 2563.42 1183.66L2563.17 1183.38 2553.69 1183.38C2552.29 1183.38 2551.26 1183.47 2550.61 1183.66 2549.96 1183.85 2549.31 1184.18 2548.67 1184.65 2548.02 1185.13 2547.32 1185.83 2546.58 1186.76 2545.83 1187.69 2545 1189.02 2544.09 1190.75L2540.48 1190.75Z" fill-rule="evenodd"/><text fill="#000000" fill-opacity="0" font-family="Arial,Arial_MSFontService,sans-serif" font-size="38.7441" x="2534.36" y="1213.99">𝑧</text><path d="M2582.52 1168.92 2616.83 1168.92 2616.83 1173.47 2582.52 1173.47Z" fill-rule="evenodd"/><text fill="#000000" fill-opacity="0" font-family="Arial,Arial_MSFontService,sans-serif" font-size="4.55713" x="2582.52" y="1172.9">−</text><path d="M2638.81 1150.06C2640.87 1150.06 2642.63 1150.3 2644.09 1150.76 2645.55 1151.23 2646.74 1151.86 2647.65 1152.65 2648.57 1153.45 2649.23 1154.4 2649.63 1155.51 2650.04 1156.62 2650.24 1157.83 2650.24 1159.12 2650.24 1159.89 2650.19 1160.61 2650.08 1161.28 2649.97 1161.94 2649.78 1162.6 2649.51 1163.24 2649.25 1163.89 2648.89 1164.54 2648.46 1165.19 2648.02 1165.85 2647.47 1166.54 2646.82 1167.28 2646.32 1167.91 2645.68 1168.65 2644.88 1169.48 2644.09 1170.32 2643.22 1171.21 2642.28 1172.16 2641.33 1173.12 2640.35 1174.11 2639.31 1175.14 2638.28 1176.17 2637.28 1177.2 2636.3 1178.21 2635.33 1179.22 2634.44 1180.2 2633.62 1181.16 2632.81 1182.11 2632.14 1182.98 2631.63 1183.78L2642.65 1183.78C2643.58 1183.78 2644.33 1183.74 2644.88 1183.67 2645.44 1183.61 2645.9 1183.45 2646.27 1183.21 2646.64 1182.97 2646.95 1182.61 2647.21 1182.13 2647.46 1181.64 2647.76 1180.97 2648.1 1180.12L2650.87 1180.12C2650.77 1181.53 2650.68 1182.94 2650.59 1184.37 2650.5 1185.8 2650.4 1187.22 2650.3 1188.63L2625.08 1188.63 2625.08 1187.08C2625.55 1186.01 2626.11 1184.96 2626.74 1183.91 2627.38 1182.87 2628.09 1181.81 2628.89 1180.74 2629.68 1179.67 2630.59 1178.56 2631.6 1177.42 2632.61 1176.28 2633.73 1175.09 2634.96 1173.86 2636.83 1171.99 2638.35 1170.4 2639.52 1169.08 2640.69 1167.76 2641.62 1166.58 2642.29 1165.55 2642.97 1164.52 2643.43 1163.56 2643.68 1162.69 2643.92 1161.82 2644.05 1160.88 2644.05 1159.89 2644.05 1158.88 2643.9 1157.95 2643.62 1157.09 2643.33 1156.24 2642.92 1155.51 2642.38 1154.92 2641.84 1154.32 2641.16 1153.85 2640.34 1153.52 2639.52 1153.18 2638.57 1153.01 2637.5 1153.01 2635.65 1153.01 2634.1 1153.51 2632.85 1154.51 2631.6 1155.52 2630.63 1156.97 2629.93 1158.88L2626.03 1158.88 2626.03 1153.07C2628.57 1152.02 2630.91 1151.25 2633.04 1150.78 2635.18 1150.3 2637.1 1150.06 2638.81 1150.06Z" fill-rule="evenodd"/><text fill="#000000" fill-opacity="0" font-family="Arial,Arial_MSFontService,sans-serif" font-size="38.5718" x="2625.08" y="1183.81">2</text><path d="M2705.85 1169.07 2711.6 1169.07 2711.6 1192.41 2733.69 1192.41 2733.69 1197.8 2711.6 1197.8 2711.6 1221.15 2705.85 1221.15 2705.85 1197.8 2683.76 1197.8 2683.76 1192.41 2705.85 1192.41Z" fill-rule="evenodd"/><text fill="#000000" fill-opacity="0" font-family="Arial,Arial_MSFontService,sans-serif" font-size="52.0776" x="2683.76" y="1214.64">+</text><path d="M2818.03 1189.9C2819.44 1189.9 2820.61 1190.39 2821.56 1191.38 2822.5 1192.37 2822.98 1193.62 2822.98 1195.13 2822.98 1196.64 2822.5 1197.89 2821.56 1198.88 2820.61 1199.86 2819.44 1200.36 2818.03 1200.36 2816.63 1200.36 2815.45 1199.86 2814.51 1198.88 2813.56 1197.89 2813.09 1196.64 2813.09 1195.13 2813.09 1193.62 2813.56 1192.37 2814.51 1191.38 2815.45 1190.39 2816.63 1189.9 2818.03 1189.9ZM2793.47 1189.9C2794.88 1189.9 2796.05 1190.39 2797 1191.38 2797.94 1192.37 2798.42 1193.62 2798.42 1195.13 2798.42 1196.64 2797.94 1197.89 2797 1198.88 2796.05 1199.86 2794.88 1200.36 2793.47 1200.36 2792.07 1200.36 2790.89 1199.86 2789.95 1198.88 2789 1197.89 2788.53 1196.64 2788.53 1195.13 2788.53 1193.62 2789 1192.37 2789.95 1191.38 2790.89 1190.39 2792.07 1189.9 2793.47 1189.9ZM2768.91 1189.9C2770.32 1189.9 2771.49 1190.39 2772.44 1191.38 2773.38 1192.37 2773.86 1193.62 2773.86 1195.13 2773.86 1196.64 2773.38 1197.89 2772.44 1198.88 2771.49 1199.86 2770.32 1200.36 2768.91 1200.36 2767.51 1200.36 2766.33 1199.86 2765.39 1198.88 2764.44 1197.89 2763.97 1196.64 2763.97 1195.13 2763.97 1193.62 2764.44 1192.37 2765.39 1191.38 2766.33 1190.39 2767.51 1189.9 2768.91 1189.9Z" fill-rule="evenodd"/><text fill="#000000" fill-opacity="0" font-family="Arial,Arial_MSFontService,sans-serif" font-size="10.4561" x="2763.97" y="1199.05">⋯</text><path d="M2870.27 1169.07 2876.03 1169.07 2876.03 1192.41 2898.12 1192.41 2898.12 1197.8 2876.03 1197.8 2876.03 1221.15 2870.27 1221.15 2870.27 1197.8 2848.19 1197.8 2848.19 1192.41 2870.27 1192.41Z" fill-rule="evenodd"/><text fill="#000000" fill-opacity="0" font-family="Arial,Arial_MSFontService,sans-serif" font-size="52.0776" x="2848.19" y="1214.64">+</text><path d="M2950.6 1184.19C2949.31 1184.19 2948.03 1184.6 2946.77 1185.42 2945.52 1186.25 2944.12 1187.61 2942.58 1189.52 2941.04 1191.42 2939.78 1193.37 2938.81 1195.37 2937.84 1197.37 2937.01 1199.93 2936.34 1203.03L2935.97 1204.73C2935.57 1206.63 2935.37 1208.46 2935.37 1210.25 2935.37 1212.38 2935.83 1213.92 2936.76 1214.87 2937.7 1215.81 2939.24 1216.28 2941.4 1216.28 2942.51 1216.28 2943.57 1216.1 2944.57 1215.74 2945.56 1215.37 2946.58 1214.77 2947.62 1213.93 2948.67 1213.1 2949.65 1212 2950.58 1210.63 2951.52 1209.27 2952.37 1207.58 2953.16 1205.59 2953.94 1203.59 2954.55 1201.45 2954.98 1199.16 2955.41 1196.88 2955.63 1194.7 2955.63 1192.62 2955.63 1189.81 2955.23 1187.7 2954.43 1186.29 2953.64 1184.89 2952.36 1184.19 2950.6 1184.19ZM2943.51 1160.88 2945.86 1160.88 2938.73 1189.25 2939.26 1189.42C2941.88 1185.9 2944.34 1183.36 2946.63 1181.8 2948.93 1180.23 2951.23 1179.45 2953.52 1179.45 2956.47 1179.45 2958.76 1180.57 2960.39 1182.81 2962.03 1185.05 2962.84 1188.21 2962.84 1192.29 2962.84 1196.75 2961.94 1201.13 2960.15 1205.44 2958.35 1209.75 2955.86 1213.17 2952.67 1215.7 2949.48 1218.22 2945.92 1219.49 2941.97 1219.49 2938.38 1219.49 2935.19 1218.61 2932.41 1216.85L2928.68 1219.49 2926.08 1218.84 2936.58 1172.52C2937.2 1169.76 2937.51 1167.76 2937.51 1166.52 2937.51 1165.38 2937.17 1164.59 2936.48 1164.13 2935.79 1163.67 2934.55 1163.41 2932.77 1163.36L2933.26 1161.25Z" fill-rule="evenodd"/><text fill="#000000" fill-opacity="0" font-family="Arial,Arial_MSFontService,sans-serif" font-size="58.6025" x="2926.08" y="1212.16">𝑏</text><path d="M2973.69 1197.05 2985.07 1197.05 2988.97 1223.92 3006.16 1197.05 3016.11 1197.05 3015.75 1198.84C3015.1 1199.02 3014.57 1199.18 3014.17 1199.31 3013.78 1199.45 3013.44 1199.73 3013.16 1200.13 3012.88 1200.54 3012.62 1201.16 3012.39 1201.99 3012.15 1202.83 3011.85 1204.03 3011.49 1205.6L3006.64 1227.37C3006.44 1228.34 3006.29 1229.13 3006.19 1229.74 3006.09 1230.35 3006.04 1230.92 3006.04 1231.45 3006.04 1232.29 3006.28 1232.88 3006.76 1233.22 3007.23 1233.57 3008.06 1233.79 3009.23 1233.86L3008.81 1235.68 2996.15 1235.68 2996.54 1233.86C2997.18 1233.75 2997.67 1233.61 2998.01 1233.45 2998.36 1233.29 2998.63 1233.08 2998.83 1232.82 2999.05 1232.62 2999.28 1232.19 2999.53 1231.53 2999.78 1230.86 3000.04 1230.04 3000.32 1229.07 3000.6 1228.1 3000.88 1227.01 3001.16 1225.81 3001.43 1224.61 3001.72 1223.35 3002.02 1222.04 3002.32 1220.73 3002.61 1219.4 3002.88 1218.06 3003.16 1216.72 3003.44 1215.44 3003.72 1214.21 3003.86 1213.49 3004.04 1212.64 3004.25 1211.66 3004.47 1210.68 3004.71 1209.7 3004.95 1208.73 3005.2 1207.75 3005.44 1206.84 3005.67 1206 3005.9 1205.16 3006.1 1204.51 3006.28 1204.05L3005.86 1204.05 2988.38 1231.33 2984.92 1231.33 2980.69 1203.13 2980.19 1203.13C2979.99 1204.4 2979.72 1205.99 2979.38 1207.91 2979.05 1209.82 2978.61 1212.07 2978.07 1214.65 2977.85 1215.57 2977.63 1216.54 2977.39 1217.57 2977.15 1218.6 2976.9 1219.67 2976.64 1220.76 2976.39 1221.85 2976.13 1222.93 2975.88 1224.01 2975.64 1225.08 2975.42 1226.09 2975.23 1227.03 2975.04 1227.97 2974.89 1228.83 2974.78 1229.61 2974.67 1230.38 2974.62 1231 2974.62 1231.45 2974.62 1232.29 2974.86 1232.88 2975.33 1233.22 2975.81 1233.57 2976.62 1233.79 2977.77 1233.86L2977.45 1235.68 2966.34 1235.68 2966.72 1233.86C2967.3 1233.77 2967.79 1233.65 2968.18 1233.52 2968.58 1233.39 2968.93 1233.12 2969.24 1232.7 2969.55 1232.29 2969.84 1231.65 2970.11 1230.8 2970.37 1229.94 2970.68 1228.72 2971.01 1227.13L2975.9 1205.42C2976.08 1204.63 2976.21 1203.89 2976.3 1203.2 2976.39 1202.52 2976.43 1201.91 2976.43 1201.37 2976.43 1200.5 2976.21 1199.88 2975.75 1199.51 2975.29 1199.14 2974.46 1198.95 2973.25 1198.93Z" fill-rule="evenodd"/><text fill="#000000" fill-opacity="0" font-family="Arial,Arial_MSFontService,sans-serif" font-size="38.6313" x="2966.34" y="1230.85">𝑀</text><path d="M3031.54 1180.09 3060.36 1180.09 3061.13 1182.12 3041.8 1204.33C3038.04 1208.63 3034.79 1212.27 3032.03 1215.27L3032.27 1215.56 3041.43 1215.56C3043.05 1215.56 3044.3 1215.47 3045.16 1215.29 3046.03 1215.12 3046.78 1214.79 3047.43 1214.3 3048.08 1213.81 3048.75 1213.08 3049.44 1212.09 3050.13 1211.1 3050.98 1209.56 3052.01 1207.45L3055.62 1207.45 3053.15 1218.84 3023.8 1218.84 3023.03 1216.85 3045.2 1191.32C3048.34 1187.73 3050.63 1185.17 3052.09 1183.66L3051.85 1183.38 3042.37 1183.38C3040.96 1183.38 3039.93 1183.47 3039.29 1183.66 3038.64 1183.85 3037.99 1184.18 3037.34 1184.65 3036.69 1185.13 3036 1185.83 3035.25 1186.76 3034.51 1187.69 3033.68 1189.02 3032.76 1190.75L3029.15 1190.75Z" fill-rule="evenodd"/><text fill="#000000" fill-opacity="0" font-family="Arial,Arial_MSFontService,sans-serif" font-size="38.7441" x="3023.03" y="1213.99">𝑧</text><path d="M3071.19 1168.92 3105.5 1168.92 3105.5 1173.47 3071.19 1173.47Z" fill-rule="evenodd"/><text fill="#000000" fill-opacity="0" font-family="Arial,Arial_MSFontService,sans-serif" font-size="4.55713" x="3071.19" y="1172.9">−</text><path d="M3118.96 1150 3130.34 1150 3134.24 1176.87 3151.43 1150 3161.38 1150 3161.02 1151.79C3160.36 1151.97 3159.84 1152.13 3159.44 1152.27 3159.04 1152.41 3158.71 1152.68 3158.43 1153.09 3158.15 1153.49 3157.89 1154.11 3157.65 1154.95 3157.42 1155.78 3157.12 1156.98 3156.76 1158.55L3151.91 1180.32C3151.71 1181.3 3151.56 1182.09 3151.46 1182.69 3151.36 1183.3 3151.31 1183.87 3151.31 1184.4 3151.31 1185.24 3151.55 1185.83 3152.02 1186.18 3152.5 1186.52 3153.33 1186.74 3154.5 1186.82L3154.08 1188.63 3141.42 1188.63 3141.81 1186.82C3142.44 1186.7 3142.94 1186.56 3143.28 1186.4 3143.63 1186.24 3143.9 1186.03 3144.1 1185.77 3144.32 1185.58 3144.55 1185.14 3144.8 1184.48 3145.05 1183.81 3145.31 1182.99 3145.59 1182.02 3145.87 1181.05 3146.15 1179.96 3146.43 1178.76 3146.7 1177.56 3146.99 1176.3 3147.29 1174.99 3147.59 1173.68 3147.87 1172.36 3148.15 1171.02 3148.43 1169.68 3148.71 1168.39 3148.99 1167.16 3149.13 1166.44 3149.3 1165.59 3149.52 1164.61 3149.74 1163.63 3149.97 1162.65 3150.22 1161.68 3150.47 1160.71 3150.71 1159.8 3150.94 1158.95 3151.17 1158.11 3151.37 1157.46 3151.55 1157L3151.13 1157 3133.65 1184.29 3130.19 1184.29 3125.96 1156.08 3125.46 1156.08C3125.26 1157.35 3124.99 1158.94 3124.65 1160.86 3124.31 1162.78 3123.88 1165.02 3123.34 1167.61 3123.12 1168.52 3122.89 1169.49 3122.66 1170.52 3122.42 1171.56 3122.17 1172.62 3121.91 1173.71 3121.65 1174.8 3121.4 1175.89 3121.15 1176.96 3120.9 1178.03 3120.69 1179.04 3120.5 1179.98 3120.31 1180.92 3120.16 1181.78 3120.05 1182.56 3119.94 1183.33 3119.89 1183.95 3119.89 1184.4 3119.89 1185.24 3120.12 1185.83 3120.6 1186.18 3121.08 1186.52 3121.89 1186.74 3123.04 1186.82L3122.72 1188.63 3111.61 1188.63 3111.99 1186.82C3112.57 1186.72 3113.06 1186.6 3113.45 1186.47 3113.85 1186.35 3114.2 1186.07 3114.51 1185.66 3114.82 1185.24 3115.11 1184.6 3115.37 1183.75 3115.64 1182.9 3115.94 1181.67 3116.28 1180.09L3121.17 1158.37C3121.35 1157.58 3121.48 1156.84 3121.57 1156.15 3121.66 1155.47 3121.7 1154.86 3121.7 1154.32 3121.7 1153.45 3121.48 1152.83 3121.02 1152.46 3120.56 1152.09 3119.73 1151.9 3118.52 1151.88Z" fill-rule="evenodd"/><text fill="#000000" fill-opacity="0" font-family="Arial,Arial_MSFontService,sans-serif" font-size="38.6313" x="3111.61" y="1183.8">𝑀</text><path d="M2008.66 1280.5 2010.88 1280.5C2010.72 1283.09 2010.64 1286.69 2010.64 1291.28L2010.64 1325.89C2010.64 1327.46 2010.73 1328.64 2010.9 1329.44 2011.08 1330.23 2011.39 1330.88 2011.84 1331.38 2012.28 1331.88 2012.92 1332.27 2013.76 1332.56 2014.6 1332.84 2015.65 1333.06 2016.92 1333.21 2018.19 1333.36 2019.87 1333.46 2021.95 1333.51L2021.95 1336.47 1992 1336.47 1992 1333.51C1995 1333.38 1997.14 1333.19 1998.42 1332.96 1999.71 1332.73 2000.69 1332.39 2001.36 1331.93 2002.04 1331.47 2002.53 1330.82 2002.84 1329.98 2003.15 1329.15 2003.31 1327.78 2003.31 1325.89L2003.31 1293.02C2003.31 1291.94 2003.12 1291.15 2002.74 1290.65 2002.36 1290.15 2001.81 1289.9 2001.08 1289.9 2000.21 1289.9 1998.98 1290.35 1997.39 1291.24 1995.79 1292.13 1993.82 1293.36 1991.47 1294.93L1989.69 1291.81Z" fill-rule="evenodd"/><text fill="#000000" fill-opacity="0" font-family="Arial,Arial_MSFontService,sans-serif" font-size="55.9683" x="1989.69" y="1329.47">1</text><path d="M2074.77 1286.7 2080.52 1286.7 2080.52 1310.05 2102.61 1310.05 2102.61 1315.44 2080.52 1315.44 2080.52 1338.78 2074.77 1338.78 2074.77 1315.44 2052.68 1315.44 2052.68 1310.05 2074.77 1310.05Z" fill-rule="evenodd"/><text fill="#000000" fill-opacity="0" font-family="Arial,Arial_MSFontService,sans-serif" font-size="52.0776" x="2052.68" y="1332.27">+</text><path d="M2152.83 1300.24C2150.04 1300.24 2147.55 1301.36 2145.33 1303.6 2143.11 1305.84 2141.39 1308.85 2140.14 1312.62 2138.9 1316.39 2138.28 1320.15 2138.28 1323.91 2138.28 1326.72 2138.66 1328.82 2139.43 1330.21 2140.2 1331.6 2141.49 1332.29 2143.3 1332.29 2145.09 1332.29 2146.84 1331.52 2148.55 1329.98 2150.27 1328.44 2152.04 1326.25 2153.86 1323.4 2155.69 1320.55 2156.98 1317.26 2157.73 1313.53L2158.1 1311.79C2158.34 1310.68 2158.5 1309.72 2158.58 1308.91 2158.66 1308.1 2158.7 1307.22 2158.7 1306.28 2158.7 1304.2 2158.26 1302.67 2157.37 1301.7 2156.48 1300.72 2154.96 1300.24 2152.83 1300.24ZM2152.02 1297.04C2153.77 1297.04 2155.41 1297.23 2156.94 1297.62 2158.47 1298.02 2160.04 1298.71 2161.66 1299.71L2165.39 1297.04 2167.99 1297.68 2162.03 1323.38C2161.43 1325.95 2161.14 1327.94 2161.14 1329.38 2161.14 1330.46 2161.31 1331.24 2161.66 1331.73 2162.01 1332.21 2162.57 1332.46 2163.32 1332.46 2164.14 1332.46 2165 1332.13 2165.92 1331.46 2166.84 1330.8 2168.13 1329.54 2169.81 1327.67L2172.12 1329.94C2169.69 1332.54 2167.61 1334.38 2165.9 1335.48 2164.18 1336.57 2162.32 1337.12 2160.33 1337.12 2158.65 1337.12 2157.31 1336.56 2156.31 1335.46 2155.31 1334.35 2154.81 1332.88 2154.81 1331.04 2154.81 1329.55 2155.12 1327.97 2155.75 1326.3L2155.22 1326.13C2152.63 1329.92 2150.17 1332.69 2147.84 1334.44 2145.52 1336.2 2143.06 1337.08 2140.47 1337.08 2137.5 1337.08 2135.19 1335.96 2133.56 1333.71 2131.92 1331.47 2131.11 1328.32 2131.11 1324.27 2131.11 1319.62 2132.02 1315.16 2133.84 1310.88 2135.66 1306.59 2138.17 1303.22 2141.36 1300.74 2144.55 1298.27 2148.1 1297.04 2152.02 1297.04Z" fill-rule="evenodd"/><text fill="#000000" fill-opacity="0" font-family="Arial,Arial_MSFontService,sans-serif" font-size="40.0815" x="2131.11" y="1332.11">𝑎</text><path d="M2190.89 1314.95 2192.7 1314.95C2192.66 1316.04 2192.63 1317.02 2192.61 1317.88 2192.59 1318.75 2192.58 1319.59 2192.57 1320.4 2192.56 1321.21 2192.55 1322.02 2192.55 1322.81L2192.55 1345.45C2192.55 1346.07 2192.57 1346.6 2192.61 1347.04 2192.65 1347.49 2192.72 1347.87 2192.81 1348.18 2192.9 1348.48 2193.02 1348.75 2193.16 1348.96 2193.31 1349.18 2193.49 1349.37 2193.69 1349.53 2193.92 1349.77 2194.24 1349.95 2194.64 1350.08 2195.04 1350.21 2195.54 1350.32 2196.16 1350.41 2196.77 1350.5 2197.51 1350.57 2198.38 1350.62 2199.24 1350.67 2200.28 1350.7 2201.49 1350.72L2201.49 1353.31 2177.87 1353.31 2177.87 1350.72C2179.04 1350.68 2180.03 1350.64 2180.85 1350.59 2181.66 1350.54 2182.36 1350.47 2182.93 1350.38 2183.51 1350.29 2183.97 1350.19 2184.32 1350.08 2184.67 1349.97 2184.97 1349.84 2185.23 1349.68 2185.51 1349.5 2185.74 1349.31 2185.94 1349.1 2186.14 1348.89 2186.3 1348.63 2186.42 1348.31 2186.54 1347.99 2186.63 1347.6 2186.7 1347.15 2186.77 1346.69 2186.81 1346.12 2186.81 1345.45L2186.81 1324.09C2186.81 1323.32 2186.66 1322.77 2186.36 1322.46 2186.06 1322.14 2185.63 1321.98 2185.08 1321.98 2184.46 1321.98 2183.55 1322.3 2182.34 1322.93 2181.13 1323.57 2179.56 1324.51 2177.63 1325.76 2177.37 1325.31 2177.14 1324.85 2176.92 1324.39 2176.7 1323.93 2176.47 1323.47 2176.23 1322.99 2178.69 1321.64 2181.13 1320.3 2183.54 1318.96 2185.96 1317.62 2188.4 1316.28 2190.89 1314.95Z" fill-rule="evenodd"/><text fill="#000000" fill-opacity="0" font-family="Arial,Arial_MSFontService,sans-serif" font-size="38.3633" x="2176.23" y="1348.52">1</text><path d="M2218.67 1297.73 2247.48 1297.73 2248.25 1299.75 2228.92 1321.96C2225.17 1326.26 2221.91 1329.9 2219.15 1332.9L2219.4 1333.19 2228.56 1333.19C2230.18 1333.19 2231.42 1333.1 2232.28 1332.92 2233.15 1332.75 2233.91 1332.42 2234.55 1331.93 2235.2 1331.44 2235.87 1330.71 2236.56 1329.72 2237.25 1328.74 2238.11 1327.19 2239.13 1325.08L2242.74 1325.08 2240.27 1336.47 2210.93 1336.47 2210.16 1334.48 2232.33 1308.95C2235.46 1305.36 2237.76 1302.8 2239.21 1301.29L2238.97 1301.01 2229.49 1301.01C2228.08 1301.01 2227.06 1301.1 2226.41 1301.29 2225.76 1301.48 2225.11 1301.81 2224.46 1302.28 2223.81 1302.76 2223.12 1303.46 2222.38 1304.39 2221.63 1305.32 2220.8 1306.65 2219.88 1308.38L2216.28 1308.38Z" fill-rule="evenodd"/><text fill="#000000" fill-opacity="0" font-family="Arial,Arial_MSFontService,sans-serif" font-size="38.7441" x="2210.16" y="1331.63">𝑧</text><path d="M2258.31 1291.98 2292.63 1291.98 2292.63 1296.54 2258.31 1296.54Z" fill-rule="evenodd"/><text fill="#000000" fill-opacity="0" font-family="Arial,Arial_MSFontService,sans-serif" font-size="4.55713" x="2258.31" y="1295.97">−</text><path d="M2316.93 1273.33 2318.74 1273.33C2318.7 1274.43 2318.68 1275.4 2318.66 1276.27 2318.64 1277.13 2318.62 1277.97 2318.61 1278.78 2318.6 1279.6 2318.6 1280.4 2318.6 1281.2L2318.6 1303.83C2318.6 1304.45 2318.62 1304.98 2318.66 1305.43 2318.7 1305.87 2318.76 1306.25 2318.85 1306.56 2318.94 1306.87 2319.06 1307.13 2319.21 1307.35 2319.36 1307.57 2319.53 1307.75 2319.73 1307.91 2319.97 1308.15 2320.28 1308.34 2320.68 1308.46 2321.08 1308.59 2321.58 1308.7 2322.2 1308.79 2322.82 1308.88 2323.55 1308.95 2324.42 1309 2325.28 1309.05 2326.32 1309.09 2327.53 1309.1L2327.53 1311.7 2303.91 1311.7 2303.91 1309.1C2305.08 1309.07 2306.08 1309.02 2306.89 1308.97 2307.7 1308.92 2308.4 1308.85 2308.98 1308.76 2309.55 1308.67 2310.01 1308.57 2310.36 1308.46 2310.71 1308.36 2311.01 1308.22 2311.27 1308.06 2311.55 1307.88 2311.78 1307.69 2311.98 1307.48 2312.18 1307.27 2312.34 1307.01 2312.46 1306.69 2312.58 1306.37 2312.67 1305.99 2312.74 1305.53 2312.81 1305.07 2312.85 1304.51 2312.85 1303.83L2312.85 1282.48C2312.85 1281.7 2312.7 1281.16 2312.4 1280.84 2312.1 1280.52 2311.68 1280.36 2311.12 1280.36 2310.5 1280.36 2309.59 1280.68 2308.38 1281.32 2307.17 1281.95 2305.6 1282.89 2303.67 1284.15 2303.42 1283.69 2303.18 1283.23 2302.96 1282.77 2302.74 1282.32 2302.51 1281.85 2302.27 1281.38 2304.74 1280.02 2307.17 1278.68 2309.59 1277.34 2312 1276 2314.45 1274.66 2316.93 1273.33Z" fill-rule="evenodd"/><text fill="#000000" fill-opacity="0" font-family="Arial,Arial_MSFontService,sans-serif" font-size="38.3633" x="2302.27" y="1306.9">1</text><path d="M2381.64 1286.7 2387.4 1286.7 2387.4 1310.05 2409.49 1310.05 2409.49 1315.44 2387.4 1315.44 2387.4 1338.78 2381.64 1338.78 2381.64 1315.44 2359.56 1315.44 2359.56 1310.05 2381.64 1310.05Z" fill-rule="evenodd"/><text fill="#000000" fill-opacity="0" font-family="Arial,Arial_MSFontService,sans-serif" font-size="52.0776" x="2359.56" y="1332.27">+</text><path d="M2459.71 1300.24C2456.92 1300.24 2454.42 1301.36 2452.21 1303.6 2449.99 1305.84 2448.26 1308.85 2447.02 1312.62 2445.78 1316.39 2445.16 1320.15 2445.16 1323.91 2445.16 1326.72 2445.54 1328.82 2446.31 1330.21 2447.08 1331.6 2448.37 1332.29 2450.18 1332.29 2451.96 1332.29 2453.71 1331.52 2455.43 1329.98 2457.15 1328.44 2458.91 1326.25 2460.74 1323.4 2462.56 1320.55 2463.85 1317.26 2464.61 1313.53L2464.97 1311.79C2465.22 1310.68 2465.38 1309.72 2465.46 1308.91 2465.54 1308.1 2465.58 1307.22 2465.58 1306.28 2465.58 1304.2 2465.14 1302.67 2464.24 1301.7 2463.35 1300.72 2461.84 1300.24 2459.71 1300.24ZM2458.89 1297.04C2460.65 1297.04 2462.29 1297.23 2463.82 1297.62 2465.35 1298.02 2466.92 1298.71 2468.54 1299.71L2472.27 1297.04 2474.86 1297.68 2468.9 1323.38C2468.31 1325.95 2468.01 1327.94 2468.01 1329.38 2468.01 1330.46 2468.19 1331.24 2468.54 1331.73 2468.89 1332.21 2469.45 1332.46 2470.2 1332.46 2471.01 1332.46 2471.88 1332.13 2472.8 1331.46 2473.71 1330.8 2475.01 1329.54 2476.69 1327.67L2479 1329.94C2476.56 1332.54 2474.49 1334.38 2472.78 1335.48 2471.06 1336.57 2469.2 1337.12 2467.2 1337.12 2465.53 1337.12 2464.19 1336.56 2463.19 1335.46 2462.19 1334.35 2461.69 1332.88 2461.69 1331.04 2461.69 1329.55 2462 1327.97 2462.62 1326.3L2462.1 1326.13C2459.5 1329.92 2457.04 1332.69 2454.72 1334.44 2452.4 1336.2 2449.94 1337.08 2447.34 1337.08 2444.37 1337.08 2442.07 1335.96 2440.43 1333.71 2438.8 1331.47 2437.98 1328.32 2437.98 1324.27 2437.98 1319.62 2438.89 1315.16 2440.72 1310.88 2442.54 1306.59 2445.05 1303.22 2448.24 1300.74 2451.42 1298.27 2454.98 1297.04 2458.89 1297.04Z" fill-rule="evenodd"/><text fill="#000000" fill-opacity="0" font-family="Arial,Arial_MSFontService,sans-serif" font-size="40.0815" x="2437.98" y="1332.11">𝑎</text><path d="M2497.34 1314.74C2499.41 1314.74 2501.17 1314.97 2502.63 1315.44 2504.09 1315.91 2505.27 1316.54 2506.19 1317.33 2507.1 1318.13 2507.76 1319.08 2508.17 1320.19 2508.58 1321.3 2508.78 1322.51 2508.78 1323.8 2508.78 1324.57 2508.72 1325.29 2508.62 1325.96 2508.51 1326.62 2508.32 1327.28 2508.05 1327.92 2507.78 1328.57 2507.43 1329.22 2506.99 1329.87 2506.56 1330.53 2506.01 1331.22 2505.35 1331.96 2504.86 1332.59 2504.21 1333.33 2503.42 1334.16 2502.62 1335 2501.76 1335.89 2500.81 1336.84 2499.87 1337.79 2498.88 1338.79 2497.85 1339.82 2496.82 1340.85 2495.81 1341.88 2494.84 1342.89 2493.87 1343.9 2492.97 1344.88 2492.16 1345.84 2491.35 1346.79 2490.68 1347.66 2490.16 1348.46L2501.18 1348.46C2502.12 1348.46 2502.86 1348.42 2503.42 1348.35 2503.97 1348.28 2504.44 1348.13 2504.8 1347.89 2505.17 1347.65 2505.48 1347.29 2505.74 1346.8 2506 1346.32 2506.3 1345.65 2506.64 1344.79L2509.41 1344.79C2509.31 1346.2 2509.21 1347.62 2509.12 1349.05 2509.03 1350.48 2508.94 1351.9 2508.84 1353.31L2483.61 1353.31 2483.61 1351.76C2484.09 1350.69 2484.64 1349.63 2485.28 1348.59 2485.91 1347.55 2486.63 1346.49 2487.42 1345.42 2488.22 1344.35 2489.12 1343.24 2490.13 1342.1 2491.15 1340.96 2492.27 1339.77 2493.5 1338.54 2495.37 1336.67 2496.89 1335.08 2498.06 1333.76 2499.23 1332.44 2500.15 1331.26 2500.83 1330.23 2501.5 1329.2 2501.96 1328.24 2502.21 1327.37 2502.46 1326.5 2502.58 1325.56 2502.58 1324.57 2502.58 1323.56 2502.44 1322.62 2502.15 1321.77 2501.86 1320.92 2501.45 1320.19 2500.92 1319.6 2500.38 1319 2499.7 1318.53 2498.88 1318.2 2498.05 1317.86 2497.1 1317.69 2496.03 1317.69 2494.18 1317.69 2492.64 1318.19 2491.39 1319.19 2490.13 1320.2 2489.16 1321.65 2488.47 1323.56L2484.56 1323.56 2484.56 1317.75C2487.11 1316.7 2489.44 1315.93 2491.58 1315.46 2493.71 1314.98 2495.63 1314.74 2497.34 1314.74Z" fill-rule="evenodd"/><text fill="#000000" fill-opacity="0" font-family="Arial,Arial_MSFontService,sans-serif" font-size="38.5718" x="2483.61" y="1348.49">2</text><path d="M2527.45 1297.73 2556.26 1297.73 2557.03 1299.75 2537.7 1321.96C2533.94 1326.26 2530.69 1329.9 2527.93 1332.9L2528.18 1333.19 2537.34 1333.19C2538.96 1333.19 2540.2 1333.1 2541.06 1332.92 2541.93 1332.75 2542.69 1332.42 2543.33 1331.93 2543.98 1331.44 2544.65 1330.71 2545.34 1329.72 2546.03 1328.74 2546.89 1327.19 2547.91 1325.08L2551.52 1325.08 2549.05 1336.47 2519.71 1336.47 2518.94 1334.48 2541.1 1308.95C2544.24 1305.36 2546.54 1302.8 2547.99 1301.29L2547.75 1301.01 2538.27 1301.01C2536.86 1301.01 2535.84 1301.1 2535.19 1301.29 2534.54 1301.48 2533.89 1301.81 2533.24 1302.28 2532.59 1302.76 2531.9 1303.46 2531.16 1304.39 2530.41 1305.32 2529.58 1306.65 2528.66 1308.38L2525.06 1308.38Z" fill-rule="evenodd"/><text fill="#000000" fill-opacity="0" font-family="Arial,Arial_MSFontService,sans-serif" font-size="38.7441" x="2518.94" y="1331.63">𝑧</text><path d="M2567.09 1291.98 2601.41 1291.98 2601.41 1296.54 2567.09 1296.54Z" fill-rule="evenodd"/><text fill="#000000" fill-opacity="0" font-family="Arial,Arial_MSFontService,sans-serif" font-size="4.55713" x="2567.09" y="1295.97">−</text><path d="M2623.38 1273.12C2625.45 1273.12 2627.21 1273.36 2628.67 1273.82 2630.13 1274.29 2631.32 1274.92 2632.23 1275.72 2633.14 1276.51 2633.8 1277.46 2634.21 1278.58 2634.62 1279.69 2634.82 1280.89 2634.82 1282.18 2634.82 1282.95 2634.77 1283.67 2634.66 1284.34 2634.55 1285 2634.36 1285.66 2634.09 1286.3 2633.82 1286.95 2633.47 1287.6 2633.03 1288.26 2632.6 1288.91 2632.05 1289.61 2631.4 1290.34 2630.9 1290.98 2630.25 1291.71 2629.46 1292.54 2628.67 1293.38 2627.8 1294.27 2626.85 1295.23 2625.91 1296.18 2624.92 1297.17 2623.89 1298.2 2622.86 1299.24 2621.85 1300.26 2620.88 1301.27 2619.91 1302.28 2619.02 1303.27 2618.2 1304.22 2617.39 1305.17 2616.72 1306.05 2616.21 1306.84L2627.23 1306.84C2628.16 1306.84 2628.9 1306.81 2629.46 1306.74 2630.02 1306.67 2630.48 1306.51 2630.84 1306.28 2631.21 1306.04 2631.53 1305.67 2631.78 1305.19 2632.04 1304.7 2632.34 1304.03 2632.68 1303.18L2635.45 1303.18C2635.35 1304.59 2635.25 1306.01 2635.16 1307.44 2635.07 1308.87 2634.98 1310.29 2634.88 1311.7L2609.65 1311.7 2609.65 1310.15C2610.13 1309.08 2610.69 1308.02 2611.32 1306.98 2611.96 1305.93 2612.67 1304.88 2613.47 1303.8 2614.26 1302.73 2615.16 1301.62 2616.18 1300.48 2617.19 1299.34 2618.31 1298.15 2619.54 1296.92 2621.41 1295.06 2622.93 1293.46 2624.1 1292.14 2625.27 1290.82 2626.19 1289.65 2626.87 1288.61 2627.54 1287.58 2628.01 1286.63 2628.25 1285.75 2628.5 1284.88 2628.63 1283.95 2628.63 1282.95 2628.63 1281.94 2628.48 1281.01 2628.19 1280.15 2627.91 1279.3 2627.49 1278.58 2626.96 1277.98 2626.42 1277.38 2625.74 1276.92 2624.92 1276.58 2624.09 1276.24 2623.15 1276.07 2622.07 1276.07 2620.23 1276.07 2618.68 1276.57 2617.43 1277.58 2616.18 1278.58 2615.2 1280.03 2614.51 1281.94L2610.61 1281.94 2610.61 1276.13C2613.15 1275.08 2615.49 1274.32 2617.62 1273.84 2619.75 1273.36 2621.68 1273.12 2623.38 1273.12Z" fill-rule="evenodd"/><text fill="#000000" fill-opacity="0" font-family="Arial,Arial_MSFontService,sans-serif" font-size="38.5718" x="2609.65" y="1306.87">2</text><path d="M2690.42 1286.7 2696.18 1286.7 2696.18 1310.05 2718.27 1310.05 2718.27 1315.44 2696.18 1315.44 2696.18 1338.78 2690.42 1338.78 2690.42 1315.44 2668.34 1315.44 2668.34 1310.05 2690.42 1310.05Z" fill-rule="evenodd"/><text fill="#000000" fill-opacity="0" font-family="Arial,Arial_MSFontService,sans-serif" font-size="52.0776" x="2668.34" y="1332.27">+</text><path d="M2802.61 1307.53C2804.01 1307.53 2805.19 1308.03 2806.13 1309.01 2807.08 1310 2807.55 1311.25 2807.55 1312.76 2807.55 1314.27 2807.08 1315.52 2806.13 1316.51 2805.19 1317.5 2804.01 1317.99 2802.61 1317.99 2801.2 1317.99 2800.03 1317.5 2799.08 1316.51 2798.14 1315.52 2797.66 1314.27 2797.66 1312.76 2797.66 1311.25 2798.14 1310 2799.08 1309.01 2800.03 1308.03 2801.2 1307.53 2802.61 1307.53ZM2778.05 1307.53C2779.45 1307.53 2780.63 1308.03 2781.57 1309.01 2782.52 1310 2782.99 1311.25 2782.99 1312.76 2782.99 1314.27 2782.52 1315.52 2781.57 1316.51 2780.63 1317.5 2779.45 1317.99 2778.05 1317.99 2776.64 1317.99 2775.47 1317.5 2774.52 1316.51 2773.58 1315.52 2773.1 1314.27 2773.1 1312.76 2773.1 1311.25 2773.58 1310 2774.52 1309.01 2775.47 1308.03 2776.64 1307.53 2778.05 1307.53ZM2753.49 1307.53C2754.89 1307.53 2756.07 1308.03 2757.01 1309.01 2757.96 1310 2758.43 1311.25 2758.43 1312.76 2758.43 1314.27 2757.96 1315.52 2757.01 1316.51 2756.07 1317.5 2754.89 1317.99 2753.49 1317.99 2752.08 1317.99 2750.91 1317.5 2749.96 1316.51 2749.02 1315.52 2748.54 1314.27 2748.54 1312.76 2748.54 1311.25 2749.02 1310 2749.96 1309.01 2750.91 1308.03 2752.08 1307.53 2753.49 1307.53Z" fill-rule="evenodd"/><text fill="#000000" fill-opacity="0" font-family="Arial,Arial_MSFontService,sans-serif" font-size="10.4561" x="2748.54" y="1316.68">⋯</text><path d="M2854.85 1286.7 2860.61 1286.7 2860.61 1310.05 2882.69 1310.05 2882.69 1315.44 2860.61 1315.44 2860.61 1338.78 2854.85 1338.78 2854.85 1315.44 2832.76 1315.44 2832.76 1310.05 2854.85 1310.05Z" fill-rule="evenodd"/><text fill="#000000" fill-opacity="0" font-family="Arial,Arial_MSFontService,sans-serif" font-size="52.0776" x="2832.76" y="1332.27">+</text><path d="M2932.91 1300.24C2930.13 1300.24 2927.63 1301.36 2925.41 1303.6 2923.2 1305.84 2921.47 1308.85 2920.23 1312.62 2918.98 1316.39 2918.36 1320.15 2918.36 1323.91 2918.36 1326.72 2918.75 1328.82 2919.52 1330.21 2920.29 1331.6 2921.58 1332.29 2923.39 1332.29 2925.17 1332.29 2926.92 1331.52 2928.64 1329.98 2930.35 1328.44 2932.12 1326.25 2933.94 1323.4 2935.77 1320.55 2937.06 1317.26 2937.81 1313.53L2938.18 1311.79C2938.42 1310.68 2938.58 1309.72 2938.67 1308.91 2938.75 1308.1 2938.79 1307.22 2938.79 1306.28 2938.79 1304.2 2938.34 1302.67 2937.45 1301.7 2936.56 1300.72 2935.05 1300.24 2932.91 1300.24ZM2932.1 1297.04C2933.86 1297.04 2935.5 1297.23 2937.02 1297.62 2938.55 1298.02 2940.12 1298.71 2941.75 1299.71L2945.47 1297.04 2948.07 1297.68 2942.11 1323.38C2941.52 1325.95 2941.22 1327.94 2941.22 1329.38 2941.22 1330.46 2941.39 1331.24 2941.75 1331.73 2942.1 1332.21 2942.65 1332.46 2943.41 1332.46 2944.22 1332.46 2945.08 1332.13 2946 1331.46 2946.92 1330.8 2948.22 1329.54 2949.89 1327.67L2952.2 1329.94C2949.77 1332.54 2947.7 1334.38 2945.98 1335.48 2944.27 1336.57 2942.41 1337.12 2940.41 1337.12 2938.73 1337.12 2937.4 1336.56 2936.4 1335.46 2935.4 1334.35 2934.9 1332.88 2934.9 1331.04 2934.9 1329.55 2935.21 1327.97 2935.83 1326.3L2935.3 1326.13C2932.71 1329.92 2930.25 1332.69 2927.93 1334.44 2925.6 1336.2 2923.14 1337.08 2920.55 1337.08 2917.58 1337.08 2915.27 1335.96 2913.64 1333.71 2912.01 1331.47 2911.19 1328.32 2911.19 1324.27 2911.19 1319.62 2912.1 1315.16 2913.92 1310.88 2915.75 1306.59 2918.25 1303.22 2921.44 1300.74 2924.63 1298.27 2928.18 1297.04 2932.1 1297.04Z" fill-rule="evenodd"/><text fill="#000000" fill-opacity="0" font-family="Arial,Arial_MSFontService,sans-serif" font-size="40.0815" x="2911.19" y="1332.11">𝑎</text><path d="M2962.03 1314.68 2973.41 1314.68 2977.31 1341.55 2994.5 1314.68 3004.44 1314.68 3004.09 1316.47C3003.43 1316.65 3002.91 1316.81 3002.51 1316.95 3002.11 1317.08 3001.77 1317.36 3001.5 1317.76 3001.22 1318.17 3000.96 1318.79 3000.72 1319.63 3000.48 1320.46 3000.18 1321.66 2999.83 1323.23L2994.97 1345C2994.77 1345.98 2994.62 1346.77 2994.53 1347.37 2994.43 1347.98 2994.38 1348.55 2994.38 1349.08 2994.38 1349.92 2994.61 1350.51 2995.09 1350.86 2995.57 1351.2 2996.39 1351.42 2997.56 1351.5L2997.15 1353.31 2984.49 1353.31 2984.88 1351.5C2985.51 1351.38 2986 1351.24 2986.35 1351.08 2986.7 1350.92 2986.97 1350.71 2987.17 1350.45 2987.39 1350.26 2987.62 1349.82 2987.87 1349.16 2988.12 1348.49 2988.38 1347.67 2988.66 1346.7 2988.94 1345.73 2989.21 1344.64 2989.49 1343.44 2989.77 1342.24 2990.06 1340.98 2990.36 1339.67 2990.65 1338.36 2990.94 1337.04 2991.22 1335.7 2991.5 1334.35 2991.78 1333.07 2992.05 1331.84 2992.19 1331.12 2992.37 1330.27 2992.59 1329.29 2992.81 1328.31 2993.04 1327.33 2993.29 1326.36 2993.54 1325.38 2993.78 1324.48 2994 1323.63 2994.23 1322.79 2994.44 1322.14 2994.61 1321.68L2994.2 1321.68 2976.71 1348.96 2973.26 1348.96 2969.03 1320.76 2968.52 1320.76C2968.32 1322.03 2968.06 1323.62 2967.72 1325.54 2967.38 1327.45 2966.94 1329.7 2966.41 1332.28 2966.19 1333.2 2965.96 1334.17 2965.72 1335.2 2965.48 1336.24 2965.24 1337.3 2964.98 1338.39 2964.72 1339.48 2964.47 1340.56 2964.22 1341.64 2963.97 1342.71 2963.75 1343.72 2963.56 1344.66 2963.38 1345.6 2963.23 1346.46 2963.12 1347.24 2963.01 1348.01 2962.95 1348.63 2962.95 1349.08 2962.95 1349.92 2963.19 1350.51 2963.67 1350.86 2964.14 1351.2 2964.96 1351.42 2966.11 1351.5L2965.78 1353.31 2954.67 1353.31 2955.06 1351.5C2955.64 1351.4 2956.12 1351.28 2956.52 1351.15 2956.92 1351.02 2957.27 1350.75 2957.58 1350.33 2957.88 1349.92 2958.17 1349.28 2958.44 1348.43 2958.71 1347.57 2959.01 1346.35 2959.35 1344.76L2964.23 1323.05C2964.41 1322.26 2964.55 1321.52 2964.64 1320.83 2964.73 1320.15 2964.77 1319.54 2964.77 1319 2964.77 1318.13 2964.54 1317.51 2964.08 1317.14 2963.63 1316.77 2962.79 1316.58 2961.58 1316.56Z" fill-rule="evenodd"/><text fill="#000000" fill-opacity="0" font-family="Arial,Arial_MSFontService,sans-serif" font-size="38.6313" x="2954.67" y="1348.48">𝑀</text><path d="M3019.88 1297.73 3048.7 1297.73 3049.47 1299.75 3030.13 1321.96C3026.38 1326.26 3023.12 1329.9 3020.37 1332.9L3020.61 1333.19 3029.77 1333.19C3031.39 1333.19 3032.63 1333.1 3033.5 1332.92 3034.36 1332.75 3035.12 1332.42 3035.77 1331.93 3036.42 1331.44 3037.08 1330.71 3037.77 1329.72 3038.46 1328.74 3039.32 1327.19 3040.35 1325.08L3043.95 1325.08 3041.48 1336.47 3012.14 1336.47 3011.37 1334.48 3033.54 1308.95C3036.67 1305.36 3038.97 1302.8 3040.43 1301.29L3040.18 1301.01 3030.7 1301.01C3029.3 1301.01 3028.27 1301.1 3027.62 1301.29 3026.97 1301.48 3026.32 1301.81 3025.68 1302.28 3025.03 1302.76 3024.33 1303.46 3023.59 1304.39 3022.85 1305.32 3022.01 1306.65 3021.1 1308.38L3017.49 1308.38Z" fill-rule="evenodd"/><text fill="#000000" fill-opacity="0" font-family="Arial,Arial_MSFontService,sans-serif" font-size="38.7441" x="3011.37" y="1331.63">𝑧</text><path d="M3059.53 1291.98 3093.84 1291.98 3093.84 1296.54 3059.53 1296.54Z" fill-rule="evenodd"/><text fill="#000000" fill-opacity="0" font-family="Arial,Arial_MSFontService,sans-serif" font-size="4.55713" x="3059.53" y="1295.97">−</text><path d="M3107.3 1273.06 3118.68 1273.06 3122.58 1299.93 3139.76 1273.06 3149.71 1273.06 3149.35 1274.85C3148.7 1275.03 3148.17 1275.19 3147.78 1275.33 3147.38 1275.47 3147.04 1275.74 3146.76 1276.15 3146.49 1276.55 3146.23 1277.18 3145.99 1278.01 3145.75 1278.84 3145.45 1280.04 3145.1 1281.61L3140.24 1303.39C3140.04 1304.36 3139.89 1305.15 3139.79 1305.75 3139.69 1306.36 3139.65 1306.93 3139.65 1307.47 3139.65 1308.3 3139.88 1308.89 3140.36 1309.24 3140.84 1309.59 3141.66 1309.8 3142.83 1309.88L3142.42 1311.7 3129.76 1311.7 3130.14 1309.88C3130.78 1309.76 3131.27 1309.62 3131.62 1309.46 3131.97 1309.3 3132.24 1309.1 3132.44 1308.84 3132.66 1308.64 3132.89 1308.21 3133.14 1307.54 3133.39 1306.88 3133.65 1306.06 3133.93 1305.08 3134.2 1304.11 3134.48 1303.02 3134.76 1301.82 3135.04 1300.62 3135.33 1299.37 3135.62 1298.05 3135.92 1296.74 3136.21 1295.42 3136.49 1294.08 3136.77 1292.74 3137.04 1291.45 3137.32 1290.22 3137.46 1289.51 3137.64 1288.66 3137.86 1287.67 3138.08 1286.69 3138.31 1285.71 3138.56 1284.74 3138.81 1283.77 3139.04 1282.86 3139.27 1282.02 3139.5 1281.17 3139.7 1280.52 3139.88 1280.06L3139.47 1280.06 3121.98 1307.35 3118.53 1307.35 3114.3 1279.14 3113.79 1279.14C3113.59 1280.41 3113.32 1282.01 3112.99 1283.92 3112.65 1285.84 3112.21 1288.09 3111.68 1290.67 3111.46 1291.58 3111.23 1292.55 3110.99 1293.59 3110.75 1294.62 3110.51 1295.68 3110.25 1296.77 3109.99 1297.87 3109.74 1298.95 3109.49 1300.02 3109.24 1301.09 3109.02 1302.1 3108.83 1303.04 3108.64 1303.99 3108.49 1304.85 3108.39 1305.62 3108.28 1306.39 3108.22 1307.01 3108.22 1307.47 3108.22 1308.3 3108.46 1308.89 3108.94 1309.24 3109.41 1309.59 3110.23 1309.8 3111.38 1309.88L3111.05 1311.7 3099.94 1311.7 3100.33 1309.88C3100.9 1309.78 3101.39 1309.67 3101.79 1309.54 3102.19 1309.41 3102.54 1309.13 3102.85 1308.72 3103.15 1308.3 3103.44 1307.67 3103.71 1306.81 3103.98 1305.96 3104.28 1304.74 3104.62 1303.15L3109.5 1281.43C3109.68 1280.64 3109.82 1279.9 3109.9 1279.22 3109.99 1278.53 3110.04 1277.92 3110.04 1277.38 3110.04 1276.51 3109.81 1275.89 3109.35 1275.52 3108.9 1275.15 3108.06 1274.96 3106.85 1274.94Z" fill-rule="evenodd"/><text fill="#000000" fill-opacity="0" font-family="Arial,Arial_MSFontService,sans-serif" font-size="38.6313" x="3099.94" y="1306.87">𝑀</text><path d="M1970.94 1255.29 2269.94 1255.29 2568.94 1255.29 2867.94 1255.29 3166.94 1255.29 3166.94 1260.29 2867.94 1260.29 2568.94 1260.29 2269.94 1260.29 1970.94 1260.29Z" fill-rule="evenodd"/><text font-family="Cambria Math,Cambria Math_MSFontService,sans-serif" font-weight="400" font-size="83" transform="matrix(1 0 0 1 1029.58 1000)">+</text><text font-family="Cambria Math,Cambria Math_MSFontService,sans-serif" font-weight="400" font-size="83" transform="matrix(1 0 0 1 1104.24 1059)">+</text><text font-family="Cambria Math,Cambria Math_MSFontService,sans-serif" font-weight="400" font-size="83" transform="matrix(1 0 0 1 2525.52 929)">+</text><text font-family="Cambria Math,Cambria Math_MSFontService,sans-serif" font-weight="400" font-size="83" transform="matrix(1 0 0 1 2459.94 1004)">─</text></g></svg>